<svg xmlns="http://www.w3.org/2000/svg" xmlns:xlink="http://www.w3.org/1999/xlink" id="body_2" preserveAspectRatio="xMinYMin meet" viewBox="0 0 793 1123"><defs><clipPath id="1"><path d="M0 842L0 -0.03997803L0 -0.03997803L595.2 -0.03997803L595.2 -0.03997803L595.2 842L595.2 842L0 842z" /></clipPath><clipPath id="2"><path d="M9E-06 842L595.2 842L595.2 842L595.2 -0.03997803L595.2 -0.03997803L9E-06 -0.03997803z" /></clipPath><clipPath id="3"><path d="M9E-06 842L595.2 842L595.2 842L595.2 -0.03997803L595.2 -0.03997803L9E-06 -0.03997803z" /></clipPath><clipPath id="4"><path d="M9E-06 842L595.2 842L595.2 842L595.2 -0.03997803L595.2 -0.03997803L9E-06 -0.03997803z" /></clipPath><clipPath id="5"><path d="M9E-06 842L595.2 842L595.2 842L595.2 -0.03997803L595.2 -0.03997803L9E-06 -0.03997803z" /></clipPath><clipPath id="6"><path d="M9E-06 842L595.2 842L595.2 842L595.2 -0.03997803L595.2 -0.03997803L9E-06 -0.03997803z" /></clipPath><clipPath id="7"><path d="M9E-06 842L595.2 842L595.2 842L595.2 -0.03997803L595.2 -0.03997803L9E-06 -0.03997803z" /></clipPath><clipPath id="8"><path d="M9E-06 842L595.2 842L595.2 842L595.2 -0.03997803L595.2 -0.03997803L9E-06 -0.03997803z" /></clipPath><clipPath id="9"><path d="M9E-06 842L595.2 842L595.2 842L595.2 -0.03997803L595.2 -0.03997803L9E-06 -0.03997803z" /></clipPath><clipPath id="10"><path d="M9E-06 842L595.2 842L595.2 842L595.2 -0.03997803L595.2 -0.03997803L9E-06 -0.03997803z" /></clipPath><clipPath id="11"><path d="M9E-06 842L595.2 842L595.2 842L595.2 -0.03997803L595.2 -0.03997803L9E-06 -0.03997803z" /></clipPath><clipPath id="12"><path d="M9E-06 842L595.2 842L595.2 842L595.2 -0.03997803L595.2 -0.03997803L9E-06 -0.03997803z" /></clipPath><clipPath id="13"><path d="M9E-06 842L595.2 842L595.2 842L595.2 -0.03997803L595.2 -0.03997803L9E-06 -0.03997803z" /></clipPath><clipPath id="14"><path d="M9E-06 842L595.2 842L595.2 842L595.2 -0.03997803L595.2 -0.03997803L9E-06 -0.03997803z" /></clipPath><clipPath id="15"><path d="M9E-06 842L595.2 842L595.2 842L595.2 -0.03997803L595.2 -0.03997803L9E-06 -0.03997803z" /></clipPath><clipPath id="16"><path d="M9E-06 842L595.2 842L595.2 842L595.2 -0.03997803L595.2 -0.03997803L9E-06 -0.03997803z" /></clipPath><clipPath id="17"><path d="M9E-06 842L595.2 842L595.2 842L595.2 -0.03997803L595.2 -0.03997803L9E-06 -0.03997803z" /></clipPath><clipPath id="18"><path d="M9E-06 842L595.2 842L595.2 842L595.2 -0.03997803L595.2 -0.03997803L9E-06 -0.03997803z" /></clipPath><clipPath id="19"><path d="M9E-06 842L595.2 842L595.2 842L595.2 -0.03997803L595.2 -0.03997803L9E-06 -0.03997803z" /></clipPath><clipPath id="20"><path d="M9E-06 842L595.2 842L595.2 842L595.2 -0.03997803L595.2 -0.03997803L9E-06 -0.03997803z" /></clipPath><clipPath id="21"><path d="M9E-06 842L595.2 842L595.2 842L595.2 -0.03997803L595.2 -0.03997803L9E-06 -0.03997803z" /></clipPath><clipPath id="22"><path d="M9E-06 842L595.2 842L595.2 842L595.2 -0.03997803L595.2 -0.03997803L9E-06 -0.03997803z" /></clipPath><clipPath id="23"><path d="M9E-06 842L595.2 842L595.2 842L595.2 -0.03997803L595.2 -0.03997803L9E-06 -0.03997803z" /></clipPath><clipPath id="24"><path d="M9E-06 842L595.2 842L595.2 842L595.2 -0.03997803L595.2 -0.03997803L9E-06 -0.03997803z" /></clipPath><clipPath id="25"><path d="M9E-06 842L595.2 842L595.2 842L595.2 -0.03997803L595.2 -0.03997803L9E-06 -0.03997803z" /></clipPath><clipPath id="26"><path d="M9E-06 842L595.2 842L595.2 842L595.2 -0.03997803L595.2 -0.03997803L9E-06 -0.03997803z" /></clipPath><clipPath id="27"><path d="M9E-06 842L595.2 842L595.2 842L595.2 -0.03997803L595.2 -0.03997803L9E-06 -0.03997803z" /></clipPath><clipPath id="28"><path d="M9E-06 842L595.2 842L595.2 842L595.2 -0.03997803L595.2 -0.03997803L9E-06 -0.03997803z" /></clipPath><clipPath id="29"><path d="M9E-06 842L595.2 842L595.2 842L595.2 -0.03997803L595.2 -0.03997803L9E-06 -0.03997803z" /></clipPath><clipPath id="30"><path d="M9E-06 842L595.2 842L595.2 842L595.2 -0.03997803L595.2 -0.03997803L9E-06 -0.03997803z" /></clipPath><clipPath id="31"><path d="M9E-06 842L595.2 842L595.2 842L595.2 -0.03997803L595.2 -0.03997803L9E-06 -0.03997803z" /></clipPath><clipPath id="32"><path d="M9E-06 842L595.2 842L595.2 842L595.2 -0.03997803L595.2 -0.03997803L9E-06 -0.03997803z" /></clipPath><clipPath id="33"><path d="M9E-06 842L595.2 842L595.2 842L595.2 -0.03997803L595.2 -0.03997803L9E-06 -0.03997803z" /></clipPath><clipPath id="34"><path d="M9E-06 842L595.2 842L595.2 842L595.2 -0.03997803L595.2 -0.03997803L9E-06 -0.03997803z" /></clipPath><clipPath id="35"><path d="M9E-06 842L595.2 842L595.2 842L595.2 -0.03997803L595.2 -0.03997803L9E-06 -0.03997803z" /></clipPath><clipPath id="36"><path d="M9E-06 842L595.2 842L595.2 842L595.2 -0.03997803L595.2 -0.03997803L9E-06 -0.03997803z" /></clipPath><clipPath id="37"><path d="M9E-06 842L595.2 842L595.2 842L595.2 -0.03997803L595.2 -0.03997803L9E-06 -0.03997803z" /></clipPath><clipPath id="38"><path d="M9E-06 842L595.2 842L595.2 842L595.2 -0.03997803L595.2 -0.03997803L9E-06 -0.03997803z" /></clipPath><clipPath id="39"><path d="M9E-06 842L595.2 842L595.2 842L595.2 -0.03997803L595.2 -0.03997803L9E-06 -0.03997803z" /></clipPath><clipPath id="40"><path d="M9E-06 842L595.2 842L595.2 842L595.2 -0.03997803L595.2 -0.03997803L9E-06 -0.03997803z" /></clipPath><clipPath id="41"><path d="M9E-06 842L595.2 842L595.2 842L595.2 -0.03997803L595.2 -0.03997803L9E-06 -0.03997803z" /></clipPath><clipPath id="42"><path d="M9E-06 842L595.2 842L595.2 842L595.2 -0.03997803L595.2 -0.03997803L9E-06 -0.03997803z" /></clipPath><clipPath id="43"><path d="M9E-06 842L595.2 842L595.2 842L595.2 -0.03997803L595.2 -0.03997803L9E-06 -0.03997803z" /></clipPath><clipPath id="44"><path d="M9E-06 842L595.2 842L595.2 842L595.2 -0.03997803L595.2 -0.03997803L9E-06 -0.03997803z" /></clipPath><clipPath id="45"><path d="M9E-06 842L595.2 842L595.2 842L595.2 -0.03997803L595.2 -0.03997803L9E-06 -0.03997803z" /></clipPath><clipPath id="46"><path d="M9E-06 842L595.2 842L595.2 842L595.2 -0.03997803L595.2 -0.03997803L9E-06 -0.03997803z" /></clipPath><clipPath id="47"><path d="M9E-06 842L595.2 842L595.2 842L595.2 -0.03997803L595.2 -0.03997803L9E-06 -0.03997803z" /></clipPath><clipPath id="48"><path d="M9E-06 842L595.2 842L595.2 842L595.2 -0.03997803L595.2 -0.03997803L9E-06 -0.03997803z" /></clipPath><clipPath id="49"><path d="M9E-06 842L595.2 842L595.2 842L595.2 -0.03997803L595.2 -0.03997803L9E-06 -0.03997803z" /></clipPath><clipPath id="50"><path d="M9E-06 842L595.2 842L595.2 842L595.2 -0.03997803L595.2 -0.03997803L9E-06 -0.03997803z" /></clipPath><clipPath id="51"><path d="M9E-06 842L595.2 842L595.2 842L595.2 -0.03997803L595.2 -0.03997803L9E-06 -0.03997803z" /></clipPath><clipPath id="52"><path d="M9E-06 842L595.2 842L595.2 842L595.2 -0.03997803L595.2 -0.03997803L9E-06 -0.03997803z" /></clipPath><clipPath id="53"><path d="M9E-06 842L595.2 842L595.2 842L595.2 -0.03997803L595.2 -0.03997803L9E-06 -0.03997803z" /></clipPath><clipPath id="54"><path d="M9E-06 842L595.2 842L595.2 842L595.2 -0.03997803L595.2 -0.03997803L9E-06 -0.03997803z" /></clipPath><clipPath id="55"><path d="M9E-06 842L595.2 842L595.2 842L595.2 -0.03997803L595.2 -0.03997803L9E-06 -0.03997803z" /></clipPath><clipPath id="56"><path d="M9E-06 842L595.2 842L595.2 842L595.2 -0.03997803L595.2 -0.03997803L9E-06 -0.03997803z" /></clipPath><clipPath id="57"><path d="M9E-06 842L595.2 842L595.2 842L595.2 -0.03997803L595.2 -0.03997803L9E-06 -0.03997803z" /></clipPath><clipPath id="58"><path d="M9E-06 842L595.2 842L595.2 842L595.2 -0.03997803L595.2 -0.03997803L9E-06 -0.03997803z" /></clipPath><clipPath id="59"><path d="M9E-06 842L595.2 842L595.2 842L595.2 -0.03997803L595.2 -0.03997803L9E-06 -0.03997803z" /></clipPath><clipPath id="60"><path d="M9E-06 842L595.2 842L595.2 842L595.2 -0.03997803L595.2 -0.03997803L9E-06 -0.03997803z" /></clipPath><clipPath id="61"><path d="M9E-06 842L595.2 842L595.2 842L595.2 -0.03997803L595.2 -0.03997803L9E-06 -0.03997803z" /></clipPath><clipPath id="62"><path d="M9E-06 842L595.2 842L595.2 842L595.2 -0.03997803L595.2 -0.03997803L9E-06 -0.03997803z" /></clipPath><clipPath id="63"><path d="M9E-06 842L595.2 842L595.2 842L595.2 -0.03997803L595.2 -0.03997803L9E-06 -0.03997803z" /></clipPath><clipPath id="64"><path d="M9E-06 842L595.2 842L595.2 842L595.2 -0.03997803L595.2 -0.03997803L9E-06 -0.03997803z" /></clipPath><clipPath id="65"><path d="M9E-06 842L595.2 842L595.2 842L595.2 -0.03997803L595.2 -0.03997803L9E-06 -0.03997803z" /></clipPath><clipPath id="66"><path d="M9E-06 842L595.2 842L595.2 842L595.2 -0.03997803L595.2 -0.03997803L9E-06 -0.03997803z" /></clipPath><clipPath id="67"><path d="M9E-06 842L595.2 842L595.2 842L595.2 -0.03997803L595.2 -0.03997803L9E-06 -0.03997803z" /></clipPath><clipPath id="68"><path d="M9E-06 842L595.2 842L595.2 842L595.2 -0.03997803L595.2 -0.03997803L9E-06 -0.03997803z" /></clipPath><clipPath id="69"><path d="M9E-06 842L595.2 842L595.2 842L595.2 -0.03997803L595.2 -0.03997803L9E-06 -0.03997803z" /></clipPath><clipPath id="70"><path d="M9E-06 842L595.2 842L595.2 842L595.2 -0.03997803L595.2 -0.03997803L9E-06 -0.03997803z" /></clipPath><clipPath id="71"><path d="M9E-06 842L595.2 842L595.2 842L595.2 -0.03997803L595.2 -0.03997803L9E-06 -0.03997803z" /></clipPath><clipPath id="72"><path d="M9E-06 842L595.2 842L595.2 842L595.2 -0.03997803L595.2 -0.03997803L9E-06 -0.03997803z" /></clipPath><clipPath id="73"><path d="M9E-06 842L595.2 842L595.2 842L595.2 -0.03997803L595.2 -0.03997803L9E-06 -0.03997803z" /></clipPath><clipPath id="74"><path d="M9E-06 842L595.2 842L595.2 842L595.2 -0.03997803L595.2 -0.03997803L9E-06 -0.03997803z" /></clipPath><clipPath id="75"><path d="M9E-06 842L595.2 842L595.2 842L595.2 -0.03997803L595.2 -0.03997803L9E-06 -0.03997803z" /></clipPath><clipPath id="76"><path d="M9E-06 842L595.2 842L595.2 842L595.2 -0.03997803L595.2 -0.03997803L9E-06 -0.03997803z" /></clipPath><clipPath id="77"><path d="M9E-06 842L595.2 842L595.2 842L595.2 -0.03997803L595.2 -0.03997803L9E-06 -0.03997803z" /></clipPath><clipPath id="78"><path d="M9E-06 842L595.2 842L595.2 842L595.2 -0.03997803L595.2 -0.03997803L9E-06 -0.03997803z" /></clipPath><clipPath id="79"><path d="M9E-06 842L595.2 842L595.2 842L595.2 -0.03997803L595.2 -0.03997803L9E-06 -0.03997803z" /></clipPath><clipPath id="80"><path d="M9E-06 842L595.2 842L595.2 842L595.2 -0.03997803L595.2 -0.03997803L9E-06 -0.03997803z" /></clipPath><clipPath id="81"><path d="M9E-06 842L595.2 842L595.2 842L595.2 -0.03997803L595.2 -0.03997803L9E-06 -0.03997803z" /></clipPath><clipPath id="82"><path d="M9E-06 842L595.2 842L595.2 842L595.2 -0.03997803L595.2 -0.03997803L9E-06 -0.03997803z" /></clipPath><clipPath id="83"><path d="M9E-06 842L595.2 842L595.2 842L595.2 -0.03997803L595.2 -0.03997803L9E-06 -0.03997803z" /></clipPath><clipPath id="84"><path d="M9E-06 842L595.2 842L595.2 842L595.2 -0.03997803L595.2 -0.03997803L9E-06 -0.03997803z" /></clipPath><clipPath id="85"><path d="M9E-06 842L595.2 842L595.2 842L595.2 -0.03997803L595.2 -0.03997803L9E-06 -0.03997803z" /></clipPath><clipPath id="86"><path d="M9E-06 842L595.2 842L595.2 842L595.2 -0.03997803L595.2 -0.03997803L9E-06 -0.03997803z" /></clipPath><clipPath id="87"><path d="M9E-06 842L595.2 842L595.2 842L595.2 -0.03997803L595.2 -0.03997803L9E-06 -0.03997803z" /></clipPath><clipPath id="88"><path d="M9E-06 842L595.2 842L595.2 842L595.2 -0.03997803L595.2 -0.03997803L9E-06 -0.03997803z" /></clipPath><clipPath id="89"><path d="M9E-06 842L595.2 842L595.2 842L595.2 -0.03997803L595.2 -0.03997803L9E-06 -0.03997803z" /></clipPath><clipPath id="90"><path d="M9E-06 842L595.2 842L595.2 842L595.2 -0.03997803L595.2 -0.03997803L9E-06 -0.03997803z" /></clipPath><clipPath id="91"><path d="M9E-06 842L595.2 842L595.2 842L595.2 -0.03997803L595.2 -0.03997803L9E-06 -0.03997803z" /></clipPath><clipPath id="92"><path d="M9E-06 842L595.2 842L595.2 842L595.2 -0.03997803L595.2 -0.03997803L9E-06 -0.03997803z" /></clipPath><clipPath id="93"><path d="M9E-06 842L595.2 842L595.2 842L595.2 -0.03997803L595.2 -0.03997803L9E-06 -0.03997803z" /></clipPath><clipPath id="94"><path d="M9E-06 842L595.2 842L595.2 842L595.2 -0.03997803L595.2 -0.03997803L9E-06 -0.03997803z" /></clipPath><clipPath id="95"><path d="M9E-06 842L595.2 842L595.2 842L595.2 -0.03997803L595.2 -0.03997803L9E-06 -0.03997803z" /></clipPath><clipPath id="96"><path d="M9E-06 842L595.2 842L595.2 842L595.2 -0.03997803L595.2 -0.03997803L9E-06 -0.03997803z" /></clipPath><clipPath id="97"><path d="M9E-06 842L595.2 842L595.2 842L595.2 -0.03997803L595.2 -0.03997803L9E-06 -0.03997803z" /></clipPath><clipPath id="98"><path d="M9E-06 842L595.2 842L595.2 842L595.2 -0.03997803L595.2 -0.03997803L9E-06 -0.03997803z" /></clipPath><clipPath id="99"><path d="M9E-06 842L595.2 842L595.2 842L595.2 -0.03997803L595.2 -0.03997803L9E-06 -0.03997803z" /></clipPath><clipPath id="100"><path d="M9E-06 842L595.2 842L595.2 842L595.2 -0.03997803L595.2 -0.03997803L9E-06 -0.03997803z" /></clipPath><clipPath id="101"><path d="M9E-06 842L595.2 842L595.2 842L595.2 -0.03997803L595.2 -0.03997803L9E-06 -0.03997803z" /></clipPath><clipPath id="102"><path d="M9E-06 842L595.2 842L595.2 842L595.2 -0.03997803L595.2 -0.03997803L9E-06 -0.03997803z" /></clipPath><clipPath id="103"><path d="M9E-06 842L595.2 842L595.2 842L595.2 -0.03997803L595.2 -0.03997803L9E-06 -0.03997803z" /></clipPath><clipPath id="104"><path d="M9E-06 842L595.2 842L595.2 842L595.2 -0.03997803L595.2 -0.03997803L9E-06 -0.03997803z" /></clipPath><clipPath id="105"><path d="M9E-06 842L595.2 842L595.2 842L595.2 -0.03997803L595.2 -0.03997803L9E-06 -0.03997803z" /></clipPath><clipPath id="106"><path d="M9E-06 842L595.2 842L595.2 842L595.2 -0.03997803L595.2 -0.03997803L9E-06 -0.03997803z" /></clipPath><clipPath id="107"><path d="M9E-06 842L595.2 842L595.2 842L595.2 -0.03997803L595.2 -0.03997803L9E-06 -0.03997803z" /></clipPath><clipPath id="108"><path d="M9E-06 842L595.2 842L595.2 842L595.2 -0.03997803L595.2 -0.03997803L9E-06 -0.03997803z" /></clipPath><clipPath id="109"><path d="M9E-06 842L595.2 842L595.2 842L595.2 -0.03997803L595.2 -0.03997803L9E-06 -0.03997803z" /></clipPath><clipPath id="110"><path d="M9E-06 842L595.2 842L595.2 842L595.2 -0.03997803L595.2 -0.03997803L9E-06 -0.03997803z" /></clipPath><clipPath id="111"><path d="M9E-06 842L595.2 842L595.2 842L595.2 -0.03997803L595.2 -0.03997803L9E-06 -0.03997803z" /></clipPath><clipPath id="112"><path d="M9E-06 842L595.2 842L595.2 842L595.2 -0.03997803L595.2 -0.03997803L9E-06 -0.03997803z" /></clipPath><clipPath id="113"><path d="M9E-06 842L595.2 842L595.2 842L595.2 -0.03997803L595.2 -0.03997803L9E-06 -0.03997803z" /></clipPath><clipPath id="114"><path d="M9E-06 842L595.2 842L595.2 842L595.2 -0.03997803L595.2 -0.03997803L9E-06 -0.03997803z" /></clipPath><clipPath id="115"><path d="M9E-06 842L595.2 842L595.2 842L595.2 -0.03997803L595.2 -0.03997803L9E-06 -0.03997803z" /></clipPath><clipPath id="116"><path d="M9E-06 842L595.2 842L595.2 842L595.2 -0.03997803L595.2 -0.03997803L9E-06 -0.03997803z" /></clipPath><clipPath id="117"><path d="M9E-06 842L595.2 842L595.2 842L595.2 -0.03997803L595.2 -0.03997803L9E-06 -0.03997803z" /></clipPath><clipPath id="118"><path d="M9E-06 842L595.2 842L595.2 842L595.2 -0.03997803L595.2 -0.03997803L9E-06 -0.03997803z" /></clipPath><clipPath id="119"><path d="M9E-06 842L595.2 842L595.2 842L595.2 -0.03997803L595.2 -0.03997803L9E-06 -0.03997803z" /></clipPath><clipPath id="120"><path d="M9E-06 842L595.2 842L595.2 842L595.2 -0.03997803L595.2 -0.03997803L9E-06 -0.03997803z" /></clipPath><clipPath id="121"><path d="M9E-06 842L595.2 842L595.2 842L595.2 -0.03997803L595.2 -0.03997803L9E-06 -0.03997803z" /></clipPath><clipPath id="122"><path d="M9E-06 842L595.2 842L595.2 842L595.2 -0.03997803L595.2 -0.03997803L9E-06 -0.03997803z" /></clipPath><clipPath id="123"><path d="M9E-06 842L595.2 842L595.2 842L595.2 -0.03997803L595.2 -0.03997803L9E-06 -0.03997803z" /></clipPath><clipPath id="124"><path d="M9E-06 842L595.2 842L595.2 842L595.2 -0.03997803L595.2 -0.03997803L9E-06 -0.03997803z" /></clipPath><clipPath id="125"><path d="M9E-06 842L595.2 842L595.2 842L595.2 -0.03997803L595.2 -0.03997803L9E-06 -0.03997803z" /></clipPath><clipPath id="126"><path d="M9E-06 842L595.2 842L595.2 842L595.2 -0.03997803L595.2 -0.03997803L9E-06 -0.03997803z" /></clipPath><clipPath id="127"><path d="M9E-06 842L595.2 842L595.2 842L595.2 -0.03997803L595.2 -0.03997803L9E-06 -0.03997803z" /></clipPath><clipPath id="128"><path d="M9E-06 842L595.2 842L595.2 842L595.2 -0.03997803L595.2 -0.03997803L9E-06 -0.03997803z" /></clipPath><clipPath id="129"><path d="M9E-06 842L595.2 842L595.2 842L595.2 -0.03997803L595.2 -0.03997803L9E-06 -0.03997803z" /></clipPath><clipPath id="130"><path d="M9E-06 842L595.2 842L595.2 842L595.2 -0.03997803L595.2 -0.03997803L9E-06 -0.03997803z" /></clipPath><clipPath id="131"><path d="M9E-06 842L595.2 842L595.2 842L595.2 -0.03997803L595.2 -0.03997803L9E-06 -0.03997803z" /></clipPath><clipPath id="132"><path d="M9E-06 842L595.2 842L595.2 842L595.2 -0.03997803L595.2 -0.03997803L9E-06 -0.03997803z" /></clipPath><clipPath id="133"><path d="M9E-06 842L595.2 842L595.2 842L595.2 -0.03997803L595.2 -0.03997803L9E-06 -0.03997803z" /></clipPath><clipPath id="134"><path d="M9E-06 842L595.2 842L595.2 842L595.2 -0.03997803L595.2 -0.03997803L9E-06 -0.03997803z" /></clipPath><clipPath id="135"><path d="M9E-06 842L595.2 842L595.2 842L595.2 -0.03997803L595.2 -0.03997803L9E-06 -0.03997803z" /></clipPath><clipPath id="136"><path d="M9E-06 842L595.2 842L595.2 842L595.2 -0.03997803L595.2 -0.03997803L9E-06 -0.03997803z" /></clipPath><clipPath id="137"><path d="M9E-06 842L595.2 842L595.2 842L595.2 -0.03997803L595.2 -0.03997803L9E-06 -0.03997803z" /></clipPath><clipPath id="138"><path d="M9E-06 842L595.2 842L595.2 842L595.2 -0.03997803L595.2 -0.03997803L9E-06 -0.03997803z" /></clipPath><clipPath id="139"><path d="M9E-06 842L595.2 842L595.2 842L595.2 -0.03997803L595.2 -0.03997803L9E-06 -0.03997803z" /></clipPath><clipPath id="140"><path d="M9E-06 842L595.2 842L595.2 842L595.2 -0.03997803L595.2 -0.03997803L9E-06 -0.03997803z" /></clipPath><clipPath id="141"><path d="M9E-06 842L595.2 842L595.2 842L595.2 -0.03997803L595.2 -0.03997803L9E-06 -0.03997803z" /></clipPath><clipPath id="142"><path d="M9E-06 842L595.2 842L595.2 842L595.2 -0.03997803L595.2 -0.03997803L9E-06 -0.03997803z" /></clipPath><clipPath id="143"><path d="M9E-06 842L595.2 842L595.2 842L595.2 -0.03997803L595.2 -0.03997803L9E-06 -0.03997803z" /></clipPath><clipPath id="144"><path d="M9E-06 842L595.2 842L595.2 842L595.2 -0.03997803L595.2 -0.03997803L9E-06 -0.03997803z" /></clipPath><clipPath id="145"><path d="M9E-06 842L595.2 842L595.2 842L595.2 -0.03997803L595.2 -0.03997803L9E-06 -0.03997803z" /></clipPath><clipPath id="146"><path d="M9E-06 842L595.2 842L595.2 842L595.2 -0.03997803L595.2 -0.03997803L9E-06 -0.03997803z" /></clipPath><clipPath id="147"><path d="M9E-06 842L595.2 842L595.2 842L595.2 -0.03997803L595.2 -0.03997803L9E-06 -0.03997803z" /></clipPath><clipPath id="148"><path d="M9E-06 842L595.2 842L595.2 842L595.2 -0.03997803L595.2 -0.03997803L9E-06 -0.03997803z" /></clipPath><clipPath id="149"><path d="M9E-06 842L595.2 842L595.2 842L595.2 -0.03997803L595.2 -0.03997803L9E-06 -0.03997803z" /></clipPath><clipPath id="150"><path d="M9E-06 842L595.2 842L595.2 842L595.2 -0.03997803L595.2 -0.03997803L9E-06 -0.03997803z" /></clipPath><clipPath id="151"><path d="M9E-06 842L595.2 842L595.2 842L595.2 -0.03997803L595.2 -0.03997803L9E-06 -0.03997803z" /></clipPath><clipPath id="152"><path d="M9E-06 842L595.2 842L595.2 842L595.2 -0.03997803L595.2 -0.03997803L9E-06 -0.03997803z" /></clipPath><clipPath id="153"><path d="M9E-06 842L595.2 842L595.2 842L595.2 -0.03997803L595.2 -0.03997803L9E-06 -0.03997803z" /></clipPath><clipPath id="154"><path d="M9E-06 842L595.2 842L595.2 842L595.2 -0.03997803L595.2 -0.03997803L9E-06 -0.03997803z" /></clipPath><clipPath id="155"><path d="M9E-06 842L595.2 842L595.2 842L595.2 -0.03997803L595.2 -0.03997803L9E-06 -0.03997803z" /></clipPath><clipPath id="156"><path d="M9E-06 842L595.2 842L595.2 842L595.2 -0.03997803L595.2 -0.03997803L9E-06 -0.03997803z" /></clipPath><clipPath id="157"><path d="M9E-06 842L595.2 842L595.2 842L595.2 -0.03997803L595.2 -0.03997803L9E-06 -0.03997803z" /></clipPath><clipPath id="158"><path d="M9E-06 842L595.2 842L595.2 842L595.2 -0.03997803L595.2 -0.03997803L9E-06 -0.03997803z" /></clipPath><clipPath id="159"><path d="M9E-06 842L595.2 842L595.2 842L595.2 -0.03997803L595.2 -0.03997803L9E-06 -0.03997803z" /></clipPath><clipPath id="160"><path d="M9E-06 842L595.2 842L595.2 842L595.2 -0.03997803L595.2 -0.03997803L9E-06 -0.03997803z" /></clipPath><clipPath id="161"><path d="M9E-06 842L595.2 842L595.2 842L595.2 -0.03997803L595.2 -0.03997803L9E-06 -0.03997803z" /></clipPath><clipPath id="162"><path d="M9E-06 842L595.2 842L595.2 842L595.2 -0.03997803L595.2 -0.03997803L9E-06 -0.03997803z" /></clipPath><clipPath id="163"><path d="M9E-06 842L595.2 842L595.2 842L595.2 -0.03997803L595.2 -0.03997803L9E-06 -0.03997803z" /></clipPath><clipPath id="164"><path d="M9E-06 842L595.2 842L595.2 842L595.2 -0.03997803L595.2 -0.03997803L9E-06 -0.03997803z" /></clipPath><clipPath id="165"><path d="M9E-06 842L595.2 842L595.2 842L595.2 -0.03997803L595.2 -0.03997803L9E-06 -0.03997803z" /></clipPath><clipPath id="166"><path d="M9E-06 842L595.2 842L595.2 842L595.2 -0.03997803L595.2 -0.03997803L9E-06 -0.03997803z" /></clipPath><clipPath id="167"><path d="M9E-06 842L595.2 842L595.2 842L595.2 -0.03997803L595.2 -0.03997803L9E-06 -0.03997803z" /></clipPath><clipPath id="168"><path d="M9E-06 842L595.2 842L595.2 842L595.2 -0.03997803L595.2 -0.03997803L9E-06 -0.03997803z" /></clipPath><clipPath id="169"><path d="M9E-06 842L595.2 842L595.2 842L595.2 -0.03997803L595.2 -0.03997803L9E-06 -0.03997803z" /></clipPath><clipPath id="170"><path d="M9E-06 842L595.2 842L595.2 842L595.2 -0.03997803L595.2 -0.03997803L9E-06 -0.03997803z" /></clipPath><clipPath id="171"><path d="M9E-06 842L595.2 842L595.2 842L595.2 -0.03997803L595.2 -0.03997803L9E-06 -0.03997803z" /></clipPath><clipPath id="172"><path d="M9E-06 842L595.2 842L595.2 842L595.2 -0.03997803L595.2 -0.03997803L9E-06 -0.03997803z" /></clipPath><clipPath id="173"><path d="M9E-06 842L595.2 842L595.2 842L595.2 -0.03997803L595.2 -0.03997803L9E-06 -0.03997803z" /></clipPath><clipPath id="174"><path d="M9E-06 842L595.2 842L595.2 842L595.2 -0.03997803L595.2 -0.03997803L9E-06 -0.03997803z" /></clipPath><clipPath id="175"><path d="M9E-06 842L595.2 842L595.2 842L595.2 -0.03997803L595.2 -0.03997803L9E-06 -0.03997803z" /></clipPath><clipPath id="176"><path d="M9E-06 842L595.2 842L595.2 842L595.2 -0.03997803L595.2 -0.03997803L9E-06 -0.03997803z" /></clipPath><clipPath id="177"><path d="M9E-06 842L595.2 842L595.2 842L595.2 -0.03997803L595.2 -0.03997803L9E-06 -0.03997803z" /></clipPath><clipPath id="178"><path d="M9E-06 842L595.2 842L595.2 842L595.2 -0.03997803L595.2 -0.03997803L9E-06 -0.03997803z" /></clipPath><clipPath id="179"><path d="M9E-06 842L595.2 842L595.2 842L595.2 -0.03997803L595.2 -0.03997803L9E-06 -0.03997803z" /></clipPath><clipPath id="180"><path d="M9E-06 842L595.2 842L595.2 842L595.2 -0.03997803L595.2 -0.03997803L9E-06 -0.03997803z" /></clipPath><clipPath id="181"><path d="M9E-06 842L595.2 842L595.2 842L595.2 -0.03997803L595.2 -0.03997803L9E-06 -0.03997803z" /></clipPath><clipPath id="182"><path d="M9E-06 842L595.2 842L595.2 842L595.2 -0.03997803L595.2 -0.03997803L9E-06 -0.03997803z" /></clipPath><clipPath id="183"><path d="M9E-06 842L595.2 842L595.2 842L595.2 -0.03997803L595.2 -0.03997803L9E-06 -0.03997803z" /></clipPath><clipPath id="184"><path d="M9E-06 842L595.2 842L595.2 842L595.2 -0.03997803L595.2 -0.03997803L9E-06 -0.03997803z" /></clipPath><clipPath id="185"><path d="M9E-06 842L595.2 842L595.2 842L595.2 -0.03997803L595.2 -0.03997803L9E-06 -0.03997803z" /></clipPath><clipPath id="186"><path d="M9E-06 842L595.2 842L595.2 842L595.2 -0.03997803L595.2 -0.03997803L9E-06 -0.03997803z" /></clipPath><clipPath id="187"><path d="M9E-06 842L595.2 842L595.2 842L595.2 -0.03997803L595.2 -0.03997803L9E-06 -0.03997803z" /></clipPath><clipPath id="188"><path d="M9E-06 842L595.2 842L595.2 842L595.2 -0.03997803L595.2 -0.03997803L9E-06 -0.03997803z" /></clipPath><clipPath id="189"><path d="M9E-06 842L595.2 842L595.2 842L595.2 -0.03997803L595.2 -0.03997803L9E-06 -0.03997803z" /></clipPath><clipPath id="190"><path d="M9E-06 842L595.2 842L595.2 842L595.2 -0.03997803L595.2 -0.03997803L9E-06 -0.03997803z" /></clipPath><clipPath id="191"><path d="M9E-06 842L595.2 842L595.2 842L595.2 -0.03997803L595.2 -0.03997803L9E-06 -0.03997803z" /></clipPath><clipPath id="192"><path d="M9E-06 842L595.2 842L595.2 842L595.2 -0.03997803L595.2 -0.03997803L9E-06 -0.03997803z" /></clipPath><clipPath id="193"><path d="M9E-06 842L595.2 842L595.2 842L595.2 -0.03997803L595.2 -0.03997803L9E-06 -0.03997803z" /></clipPath><clipPath id="194"><path d="M9E-06 842L595.2 842L595.2 842L595.2 -0.03997803L595.2 -0.03997803L9E-06 -0.03997803z" /></clipPath><clipPath id="195"><path d="M9E-06 842L595.2 842L595.2 842L595.2 -0.03997803L595.2 -0.03997803L9E-06 -0.03997803z" /></clipPath><clipPath id="196"><path d="M9E-06 842L595.2 842L595.2 842L595.2 -0.03997803L595.2 -0.03997803L9E-06 -0.03997803z" /></clipPath><clipPath id="197"><path d="M9E-06 842L595.2 842L595.2 842L595.2 -0.03997803L595.2 -0.03997803L9E-06 -0.03997803z" /></clipPath><clipPath id="198"><path d="M9E-06 842L595.2 842L595.2 842L595.2 -0.03997803L595.2 -0.03997803L9E-06 -0.03997803z" /></clipPath><clipPath id="199"><path d="M9E-06 842L595.2 842L595.2 842L595.2 -0.03997803L595.2 -0.03997803L9E-06 -0.03997803z" /></clipPath><clipPath id="200"><path d="M9E-06 842L595.2 842L595.2 842L595.2 -0.03997803L595.2 -0.03997803L9E-06 -0.03997803z" /></clipPath><clipPath id="201"><path d="M9E-06 842L595.2 842L595.2 842L595.2 -0.03997803L595.2 -0.03997803L9E-06 -0.03997803z" /></clipPath><clipPath id="202"><path d="M9E-06 842L595.2 842L595.2 842L595.2 -0.03997803L595.2 -0.03997803L9E-06 -0.03997803z" /></clipPath><clipPath id="203"><path d="M9E-06 842L595.2 842L595.2 842L595.2 -0.03997803L595.2 -0.03997803L9E-06 -0.03997803z" /></clipPath><clipPath id="204"><path d="M9E-06 842L595.2 842L595.2 842L595.2 -0.03997803L595.2 -0.03997803L9E-06 -0.03997803z" /></clipPath><clipPath id="205"><path d="M9E-06 842L595.2 842L595.2 842L595.2 -0.03997803L595.2 -0.03997803L9E-06 -0.03997803z" /></clipPath><clipPath id="206"><path d="M9E-06 842L595.2 842L595.2 842L595.2 -0.03997803L595.2 -0.03997803L9E-06 -0.03997803z" /></clipPath><clipPath id="207"><path d="M9E-06 842L595.2 842L595.2 842L595.2 -0.03997803L595.2 -0.03997803L9E-06 -0.03997803z" /></clipPath><clipPath id="208"><path d="M9E-06 842L595.2 842L595.2 842L595.2 -0.03997803L595.2 -0.03997803L9E-06 -0.03997803z" /></clipPath><clipPath id="209"><path d="M9E-06 842L595.2 842L595.2 842L595.2 -0.03997803L595.2 -0.03997803L9E-06 -0.03997803z" /></clipPath><clipPath id="210"><path d="M9E-06 842L595.2 842L595.2 842L595.2 -0.03997803L595.2 -0.03997803L9E-06 -0.03997803z" /></clipPath><clipPath id="211"><path d="M9E-06 842L595.2 842L595.2 842L595.2 -0.03997803L595.2 -0.03997803L9E-06 -0.03997803z" /></clipPath><clipPath id="212"><path d="M9E-06 842L595.2 842L595.2 842L595.2 -0.03997803L595.2 -0.03997803L9E-06 -0.03997803z" /></clipPath><clipPath id="213"><path d="M9E-06 842L595.2 842L595.2 842L595.2 -0.03997803L595.2 -0.03997803L9E-06 -0.03997803z" /></clipPath><clipPath id="214"><path d="M9E-06 842L595.2 842L595.2 842L595.2 -0.03997803L595.2 -0.03997803L9E-06 -0.03997803z" /></clipPath><clipPath id="215"><path d="M9E-06 842L595.2 842L595.2 842L595.2 -0.03997803L595.2 -0.03997803L9E-06 -0.03997803z" /></clipPath><clipPath id="216"><path d="M9E-06 842L595.2 842L595.2 842L595.2 -0.03997803L595.2 -0.03997803L9E-06 -0.03997803z" /></clipPath><clipPath id="217"><path d="M9E-06 842L595.2 842L595.2 842L595.2 -0.03997803L595.2 -0.03997803L9E-06 -0.03997803z" /></clipPath><clipPath id="218"><path d="M9E-06 842L595.2 842L595.2 842L595.2 -0.03997803L595.2 -0.03997803L9E-06 -0.03997803z" /></clipPath><clipPath id="219"><path d="M9E-06 842L595.2 842L595.2 842L595.2 -0.03997803L595.2 -0.03997803L9E-06 -0.03997803z" /></clipPath><clipPath id="220"><path d="M9E-06 842L595.2 842L595.2 842L595.2 -0.03997803L595.2 -0.03997803L9E-06 -0.03997803z" /></clipPath><clipPath id="221"><path d="M9E-06 842L595.2 842L595.2 842L595.2 -0.03997803L595.2 -0.03997803L9E-06 -0.03997803z" /></clipPath><clipPath id="222"><path d="M9E-06 842L595.2 842L595.2 842L595.2 -0.03997803L595.2 -0.03997803L9E-06 -0.03997803z" /></clipPath><clipPath id="223"><path d="M9E-06 842L595.2 842L595.2 842L595.2 -0.03997803L595.2 -0.03997803L9E-06 -0.03997803z" /></clipPath><clipPath id="224"><path d="M9E-06 842L595.2 842L595.2 842L595.2 -0.03997803L595.2 -0.03997803L9E-06 -0.03997803z" /></clipPath><clipPath id="225"><path d="M9E-06 842L595.2 842L595.2 842L595.2 -0.03997803L595.2 -0.03997803L9E-06 -0.03997803z" /></clipPath><clipPath id="226"><path d="M9E-06 842L595.2 842L595.2 842L595.2 -0.03997803L595.2 -0.03997803L9E-06 -0.03997803z" /></clipPath><clipPath id="227"><path d="M9E-06 842L595.2 842L595.2 842L595.2 -0.03997803L595.2 -0.03997803L9E-06 -0.03997803z" /></clipPath><clipPath id="228"><path d="M9E-06 842L595.2 842L595.2 842L595.2 -0.03997803L595.2 -0.03997803L9E-06 -0.03997803z" /></clipPath><clipPath id="229"><path d="M9E-06 842L595.2 842L595.2 842L595.2 -0.03997803L595.2 -0.03997803L9E-06 -0.03997803z" /></clipPath><clipPath id="230"><path d="M9E-06 842L595.2 842L595.2 842L595.2 -0.03997803L595.2 -0.03997803L9E-06 -0.03997803z" /></clipPath><clipPath id="231"><path d="M9E-06 842L595.2 842L595.2 842L595.2 -0.03997803L595.2 -0.03997803L9E-06 -0.03997803z" /></clipPath><clipPath id="232"><path d="M9E-06 842L595.2 842L595.2 842L595.2 -0.03997803L595.2 -0.03997803L9E-06 -0.03997803z" /></clipPath><clipPath id="233"><path d="M9E-06 842L595.2 842L595.2 842L595.2 -0.03997803L595.2 -0.03997803L9E-06 -0.03997803z" /></clipPath><clipPath id="234"><path d="M9E-06 842L595.2 842L595.2 842L595.2 -0.03997803L595.2 -0.03997803L9E-06 -0.03997803z" /></clipPath><clipPath id="235"><path d="M9E-06 842L595.2 842L595.2 842L595.2 -0.03997803L595.2 -0.03997803L9E-06 -0.03997803z" /></clipPath><clipPath id="236"><path d="M9E-06 842L595.2 842L595.2 842L595.2 -0.03997803L595.2 -0.03997803L9E-06 -0.03997803z" /></clipPath><clipPath id="237"><path d="M9E-06 842L595.2 842L595.2 842L595.2 -0.03997803L595.2 -0.03997803L9E-06 -0.03997803z" /></clipPath><clipPath id="238"><path d="M9E-06 842L595.2 842L595.2 842L595.2 -0.03997803L595.2 -0.03997803L9E-06 -0.03997803z" /></clipPath><clipPath id="239"><path d="M9E-06 842L595.2 842L595.2 842L595.2 -0.03997803L595.2 -0.03997803L9E-06 -0.03997803z" /></clipPath><clipPath id="240"><path d="M9E-06 842L595.2 842L595.2 842L595.2 -0.03997803L595.2 -0.03997803L9E-06 -0.03997803z" /></clipPath><clipPath id="241"><path d="M9E-06 842L595.2 842L595.2 842L595.2 -0.03997803L595.2 -0.03997803L9E-06 -0.03997803z" /></clipPath><clipPath id="242"><path d="M9E-06 842L595.2 842L595.2 842L595.2 -0.03997803L595.2 -0.03997803L9E-06 -0.03997803z" /></clipPath><clipPath id="243"><path d="M9E-06 842L595.2 842L595.2 842L595.2 -0.03997803L595.2 -0.03997803L9E-06 -0.03997803z" /></clipPath><clipPath id="244"><path d="M9E-06 842L595.2 842L595.2 842L595.2 -0.03997803L595.2 -0.03997803L9E-06 -0.03997803z" /></clipPath><clipPath id="245"><path d="M9E-06 842L595.2 842L595.2 842L595.2 -0.03997803L595.2 -0.03997803L9E-06 -0.03997803z" /></clipPath><clipPath id="246"><path d="M9E-06 842L595.2 842L595.2 842L595.2 -0.03997803L595.2 -0.03997803L9E-06 -0.03997803z" /></clipPath><clipPath id="247"><path d="M9E-06 842L595.2 842L595.2 842L595.2 -0.03997803L595.2 -0.03997803L9E-06 -0.03997803z" /></clipPath><clipPath id="248"><path d="M9E-06 842L595.2 842L595.2 842L595.2 -0.03997803L595.2 -0.03997803L9E-06 -0.03997803z" /></clipPath><clipPath id="249"><path d="M9E-06 842L595.2 842L595.2 842L595.2 -0.03997803L595.2 -0.03997803L9E-06 -0.03997803z" /></clipPath><clipPath id="250"><path d="M9E-06 842L595.2 842L595.2 842L595.2 -0.03997803L595.2 -0.03997803L9E-06 -0.03997803z" /></clipPath><clipPath id="251"><path d="M9E-06 842L595.2 842L595.2 842L595.2 -0.03997803L595.2 -0.03997803L9E-06 -0.03997803z" /></clipPath><clipPath id="252"><path d="M9E-06 842L595.2 842L595.2 842L595.2 -0.03997803L595.2 -0.03997803L9E-06 -0.03997803z" /></clipPath><clipPath id="253"><path d="M9E-06 842L595.2 842L595.2 842L595.2 -0.03997803L595.2 -0.03997803L9E-06 -0.03997803z" /></clipPath><clipPath id="254"><path d="M9E-06 842L595.2 842L595.2 842L595.2 -0.03997803L595.2 -0.03997803L9E-06 -0.03997803z" /></clipPath><clipPath id="255"><path d="M9E-06 842L595.2 842L595.2 842L595.2 -0.03997803L595.2 -0.03997803L9E-06 -0.03997803z" /></clipPath><clipPath id="256"><path d="M9E-06 842L595.2 842L595.2 842L595.2 -0.03997803L595.2 -0.03997803L9E-06 -0.03997803z" /></clipPath><clipPath id="257"><path d="M9E-06 842L595.2 842L595.2 842L595.2 -0.03997803L595.2 -0.03997803L9E-06 -0.03997803z" /></clipPath><clipPath id="258"><path d="M9E-06 842L595.2 842L595.2 842L595.2 -0.03997803L595.2 -0.03997803L9E-06 -0.03997803z" /></clipPath><clipPath id="259"><path d="M9E-06 842L595.2 842L595.2 842L595.2 -0.03997803L595.2 -0.03997803L9E-06 -0.03997803z" /></clipPath><clipPath id="260"><path d="M9E-06 842L595.2 842L595.2 842L595.2 -0.03997803L595.2 -0.03997803L9E-06 -0.03997803z" /></clipPath><clipPath id="261"><path d="M9E-06 842L595.2 842L595.2 842L595.2 -0.03997803L595.2 -0.03997803L9E-06 -0.03997803z" /></clipPath><clipPath id="262"><path d="M9E-06 842L595.2 842L595.2 842L595.2 -0.03997803L595.2 -0.03997803L9E-06 -0.03997803z" /></clipPath><clipPath id="263"><path d="M9E-06 842L595.2 842L595.2 842L595.2 -0.03997803L595.2 -0.03997803L9E-06 -0.03997803z" /></clipPath><clipPath id="264"><path d="M9E-06 842L595.2 842L595.2 842L595.2 -0.03997803L595.2 -0.03997803L9E-06 -0.03997803z" /></clipPath><clipPath id="265"><path d="M9E-06 842L595.2 842L595.2 842L595.2 -0.03997803L595.2 -0.03997803L9E-06 -0.03997803z" /></clipPath><clipPath id="266"><path d="M9E-06 842L595.2 842L595.2 842L595.2 -0.03997803L595.2 -0.03997803L9E-06 -0.03997803z" /></clipPath><clipPath id="267"><path d="M9E-06 842L595.2 842L595.2 842L595.2 -0.03997803L595.2 -0.03997803L9E-06 -0.03997803z" /></clipPath><clipPath id="268"><path d="M9E-06 842L595.2 842L595.2 842L595.2 -0.03997803L595.2 -0.03997803L9E-06 -0.03997803z" /></clipPath><clipPath id="269"><path d="M9E-06 842L595.2 842L595.2 842L595.2 -0.03997803L595.2 -0.03997803L9E-06 -0.03997803z" /></clipPath><clipPath id="270"><path d="M9E-06 842L595.2 842L595.2 842L595.2 -0.03997803L595.2 -0.03997803L9E-06 -0.03997803z" /></clipPath><clipPath id="271"><path d="M9E-06 842L595.2 842L595.2 842L595.2 -0.03997803L595.2 -0.03997803L9E-06 -0.03997803z" /></clipPath><clipPath id="272"><path d="M9E-06 842L595.2 842L595.2 842L595.2 -0.03997803L595.2 -0.03997803L9E-06 -0.03997803z" /></clipPath><clipPath id="273"><path d="M9E-06 842L595.2 842L595.2 842L595.2 -0.03997803L595.2 -0.03997803L9E-06 -0.03997803z" /></clipPath><clipPath id="274"><path d="M9E-06 842L595.2 842L595.2 842L595.2 -0.03997803L595.2 -0.03997803L9E-06 -0.03997803z" /></clipPath><clipPath id="275"><path d="M9E-06 842L595.2 842L595.2 842L595.2 -0.03997803L595.2 -0.03997803L9E-06 -0.03997803z" /></clipPath><clipPath id="276"><path d="M9E-06 842L595.2 842L595.2 842L595.2 -0.03997803L595.2 -0.03997803L9E-06 -0.03997803z" /></clipPath><clipPath id="277"><path d="M9E-06 842L595.2 842L595.2 842L595.2 -0.03997803L595.2 -0.03997803L9E-06 -0.03997803z" /></clipPath><clipPath id="278"><path d="M9E-06 842L595.2 842L595.2 842L595.2 -0.03997803L595.2 -0.03997803L9E-06 -0.03997803z" /></clipPath><clipPath id="279"><path d="M9E-06 842L595.2 842L595.2 842L595.2 -0.03997803L595.2 -0.03997803L9E-06 -0.03997803z" /></clipPath><clipPath id="280"><path d="M9E-06 842L595.2 842L595.2 842L595.2 -0.03997803L595.2 -0.03997803L9E-06 -0.03997803z" /></clipPath><clipPath id="281"><path d="M9E-06 842L595.2 842L595.2 842L595.2 -0.03997803L595.2 -0.03997803L9E-06 -0.03997803z" /></clipPath><clipPath id="282"><path d="M9E-06 842L595.2 842L595.2 842L595.2 -0.03997803L595.2 -0.03997803L9E-06 -0.03997803z" /></clipPath><clipPath id="283"><path d="M9E-06 842L595.2 842L595.2 842L595.2 -0.03997803L595.2 -0.03997803L9E-06 -0.03997803z" /></clipPath><clipPath id="284"><path d="M9E-06 842L595.2 842L595.2 842L595.2 -0.03997803L595.2 -0.03997803L9E-06 -0.03997803z" /></clipPath><clipPath id="285"><path d="M9E-06 842L595.2 842L595.2 842L595.2 -0.03997803L595.2 -0.03997803L9E-06 -0.03997803z" /></clipPath><clipPath id="286"><path d="M9E-06 842L595.2 842L595.2 842L595.2 -0.03997803L595.2 -0.03997803L9E-06 -0.03997803z" /></clipPath><clipPath id="287"><path d="M9E-06 842L595.2 842L595.2 842L595.2 -0.03997803L595.2 -0.03997803L9E-06 -0.03997803z" /></clipPath><clipPath id="288"><path d="M9E-06 842L595.2 842L595.2 842L595.2 -0.03997803L595.2 -0.03997803L9E-06 -0.03997803z" /></clipPath><clipPath id="289"><path d="M9E-06 842L595.2 842L595.2 842L595.2 -0.03997803L595.2 -0.03997803L9E-06 -0.03997803z" /></clipPath><clipPath id="290"><path d="M9E-06 842L595.2 842L595.2 842L595.2 -0.03997803L595.2 -0.03997803L9E-06 -0.03997803z" /></clipPath><clipPath id="291"><path d="M9E-06 842L595.2 842L595.2 842L595.2 -0.03997803L595.2 -0.03997803L9E-06 -0.03997803z" /></clipPath><clipPath id="292"><path d="M9E-06 842L595.2 842L595.2 842L595.2 -0.03997803L595.2 -0.03997803L9E-06 -0.03997803z" /></clipPath><clipPath id="293"><path d="M9E-06 842L595.2 842L595.2 842L595.2 -0.03997803L595.2 -0.03997803L9E-06 -0.03997803z" /></clipPath><clipPath id="294"><path d="M9E-06 842L595.2 842L595.2 842L595.2 -0.03997803L595.2 -0.03997803L9E-06 -0.03997803z" /></clipPath><clipPath id="295"><path d="M9E-06 842L595.2 842L595.2 842L595.2 -0.03997803L595.2 -0.03997803L9E-06 -0.03997803z" /></clipPath><clipPath id="296"><path d="M9E-06 842L595.2 842L595.2 842L595.2 -0.03997803L595.2 -0.03997803L9E-06 -0.03997803z" /></clipPath><clipPath id="297"><path d="M9E-06 842L595.2 842L595.2 842L595.2 -0.03997803L595.2 -0.03997803L9E-06 -0.03997803z" /></clipPath><clipPath id="298"><path d="M9E-06 842L595.2 842L595.2 842L595.2 -0.03997803L595.2 -0.03997803L9E-06 -0.03997803z" /></clipPath><clipPath id="299"><path d="M9E-06 842L595.2 842L595.2 842L595.2 -0.03997803L595.2 -0.03997803L9E-06 -0.03997803z" /></clipPath><clipPath id="300"><path d="M9E-06 842L595.2 842L595.2 842L595.2 -0.03997803L595.2 -0.03997803L9E-06 -0.03997803z" /></clipPath><clipPath id="301"><path d="M9E-06 842L595.2 842L595.2 842L595.2 -0.03997803L595.2 -0.03997803L9E-06 -0.03997803z" /></clipPath><clipPath id="302"><path d="M9E-06 842L595.2 842L595.2 842L595.2 -0.03997803L595.2 -0.03997803L9E-06 -0.03997803z" /></clipPath><clipPath id="303"><path d="M9E-06 842L595.2 842L595.2 842L595.2 -0.03997803L595.2 -0.03997803L9E-06 -0.03997803z" /></clipPath><clipPath id="304"><path d="M9E-06 842L595.2 842L595.2 842L595.2 -0.03997803L595.2 -0.03997803L9E-06 -0.03997803z" /></clipPath><clipPath id="305"><path d="M9E-06 842L595.2 842L595.2 842L595.2 -0.03997803L595.2 -0.03997803L9E-06 -0.03997803z" /></clipPath><clipPath id="306"><path d="M9E-06 842L595.2 842L595.2 842L595.2 -0.03997803L595.2 -0.03997803L9E-06 -0.03997803z" /></clipPath><clipPath id="307"><path d="M9E-06 842L595.2 842L595.2 842L595.2 -0.03997803L595.2 -0.03997803L9E-06 -0.03997803z" /></clipPath><clipPath id="308"><path d="M9E-06 842L595.2 842L595.2 842L595.2 -0.03997803L595.2 -0.03997803L9E-06 -0.03997803z" /></clipPath><clipPath id="309"><path d="M9E-06 842L595.2 842L595.2 842L595.2 -0.03997803L595.2 -0.03997803L9E-06 -0.03997803z" /></clipPath><clipPath id="310"><path d="M9E-06 842L595.2 842L595.2 842L595.2 -0.03997803L595.2 -0.03997803L9E-06 -0.03997803z" /></clipPath><clipPath id="311"><path d="M9E-06 842L595.2 842L595.2 842L595.2 -0.03997803L595.2 -0.03997803L9E-06 -0.03997803z" /></clipPath><clipPath id="312"><path d="M9E-06 842L595.2 842L595.2 842L595.2 -0.03997803L595.2 -0.03997803L9E-06 -0.03997803z" /></clipPath><clipPath id="313"><path d="M9E-06 842L595.2 842L595.2 842L595.2 -0.03997803L595.2 -0.03997803L9E-06 -0.03997803z" /></clipPath><clipPath id="314"><path d="M9E-06 842L595.2 842L595.2 842L595.2 -0.03997803L595.2 -0.03997803L9E-06 -0.03997803z" /></clipPath><clipPath id="315"><path d="M9E-06 842L595.2 842L595.2 842L595.2 -0.03997803L595.2 -0.03997803L9E-06 -0.03997803z" /></clipPath><clipPath id="316"><path d="M9E-06 842L595.2 842L595.2 842L595.2 -0.03997803L595.2 -0.03997803L9E-06 -0.03997803z" /></clipPath><clipPath id="317"><path d="M9E-06 842L595.2 842L595.2 842L595.2 -0.03997803L595.2 -0.03997803L9E-06 -0.03997803z" /></clipPath><clipPath id="318"><path d="M9E-06 842L595.2 842L595.2 842L595.2 -0.03997803L595.2 -0.03997803L9E-06 -0.03997803z" /></clipPath><clipPath id="319"><path d="M9E-06 842L595.2 842L595.2 842L595.2 -0.03997803L595.2 -0.03997803L9E-06 -0.03997803z" /></clipPath><clipPath id="320"><path d="M9E-06 842L595.2 842L595.2 842L595.2 -0.03997803L595.2 -0.03997803L9E-06 -0.03997803z" /></clipPath><clipPath id="321"><path d="M9E-06 842L595.2 842L595.2 842L595.2 -0.03997803L595.2 -0.03997803L9E-06 -0.03997803z" /></clipPath><clipPath id="322"><path d="M9E-06 842L595.2 842L595.2 842L595.2 -0.03997803L595.2 -0.03997803L9E-06 -0.03997803z" /></clipPath><clipPath id="323"><path d="M9E-06 842L595.2 842L595.2 842L595.2 -0.03997803L595.2 -0.03997803L9E-06 -0.03997803z" /></clipPath><clipPath id="324"><path d="M9E-06 842L595.2 842L595.2 842L595.2 -0.03997803L595.2 -0.03997803L9E-06 -0.03997803z" /></clipPath><clipPath id="325"><path d="M9E-06 842L595.2 842L595.2 842L595.2 -0.03997803L595.2 -0.03997803L9E-06 -0.03997803z" /></clipPath><clipPath id="326"><path d="M9E-06 842L595.2 842L595.2 842L595.2 -0.03997803L595.2 -0.03997803L9E-06 -0.03997803z" /></clipPath><clipPath id="327"><path d="M9E-06 842L595.2 842L595.2 842L595.2 -0.03997803L595.2 -0.03997803L9E-06 -0.03997803z" /></clipPath><clipPath id="328"><path d="M9E-06 842L595.2 842L595.2 842L595.2 -0.03997803L595.2 -0.03997803L9E-06 -0.03997803z" /></clipPath><clipPath id="329"><path d="M9E-06 842L595.2 842L595.2 842L595.2 -0.03997803L595.2 -0.03997803L9E-06 -0.03997803z" /></clipPath><clipPath id="330"><path d="M9E-06 842L595.2 842L595.2 842L595.2 -0.03997803L595.2 -0.03997803L9E-06 -0.03997803z" /></clipPath><clipPath id="331"><path d="M9E-06 842L595.2 842L595.2 842L595.2 -0.03997803L595.2 -0.03997803L9E-06 -0.03997803z" /></clipPath><clipPath id="332"><path d="M9E-06 842L595.2 842L595.2 842L595.2 -0.03997803L595.2 -0.03997803L9E-06 -0.03997803z" /></clipPath><clipPath id="333"><path d="M9E-06 842L595.2 842L595.2 842L595.2 -0.03997803L595.2 -0.03997803L9E-06 -0.03997803z" /></clipPath><clipPath id="334"><path d="M9E-06 842L595.2 842L595.2 842L595.2 -0.03997803L595.2 -0.03997803L9E-06 -0.03997803z" /></clipPath><clipPath id="335"><path d="M9E-06 842L595.2 842L595.2 842L595.2 -0.03997803L595.2 -0.03997803L9E-06 -0.03997803z" /></clipPath><clipPath id="336"><path d="M9E-06 842L595.2 842L595.2 842L595.2 -0.03997803L595.2 -0.03997803L9E-06 -0.03997803z" /></clipPath><clipPath id="337"><path d="M9E-06 842L595.2 842L595.2 842L595.2 -0.03997803L595.2 -0.03997803L9E-06 -0.03997803z" /></clipPath><clipPath id="338"><path d="M9E-06 842L595.2 842L595.2 842L595.2 -0.03997803L595.2 -0.03997803L9E-06 -0.03997803z" /></clipPath><clipPath id="339"><path d="M9E-06 842L595.2 842L595.2 842L595.2 -0.03997803L595.2 -0.03997803L9E-06 -0.03997803z" /></clipPath><clipPath id="340"><path d="M9E-06 842L595.2 842L595.2 842L595.2 -0.03997803L595.2 -0.03997803L9E-06 -0.03997803z" /></clipPath><clipPath id="341"><path d="M9E-06 842L595.2 842L595.2 842L595.2 -0.03997803L595.2 -0.03997803L9E-06 -0.03997803z" /></clipPath><clipPath id="342"><path d="M9E-06 842L595.2 842L595.2 842L595.2 -0.03997803L595.2 -0.03997803L9E-06 -0.03997803z" /></clipPath><clipPath id="343"><path d="M9E-06 842L595.2 842L595.2 842L595.2 -0.03997803L595.2 -0.03997803L9E-06 -0.03997803z" /></clipPath><clipPath id="344"><path d="M9E-06 842L595.2 842L595.2 842L595.2 -0.03997803L595.2 -0.03997803L9E-06 -0.03997803z" /></clipPath><clipPath id="345"><path d="M9E-06 842L595.2 842L595.2 842L595.2 -0.03997803L595.2 -0.03997803L9E-06 -0.03997803z" /></clipPath><clipPath id="346"><path d="M9E-06 842L595.2 842L595.2 842L595.2 -0.03997803L595.2 -0.03997803L9E-06 -0.03997803z" /></clipPath><clipPath id="347"><path d="M9E-06 842L595.2 842L595.2 842L595.2 -0.03997803L595.2 -0.03997803L9E-06 -0.03997803z" /></clipPath><clipPath id="348"><path d="M9E-06 842L595.2 842L595.2 842L595.2 -0.03997803L595.2 -0.03997803L9E-06 -0.03997803z" /></clipPath><clipPath id="349"><path d="M9E-06 842L595.2 842L595.2 842L595.2 -0.03997803L595.2 -0.03997803L9E-06 -0.03997803z" /></clipPath><clipPath id="350"><path d="M9E-06 842L595.2 842L595.2 842L595.2 -0.03997803L595.2 -0.03997803L9E-06 -0.03997803z" /></clipPath><clipPath id="351"><path d="M9E-06 842L595.2 842L595.2 842L595.2 -0.03997803L595.2 -0.03997803L9E-06 -0.03997803z" /></clipPath><clipPath id="352"><path d="M9E-06 842L595.2 842L595.2 842L595.2 -0.03997803L595.2 -0.03997803L9E-06 -0.03997803z" /></clipPath><clipPath id="353"><path d="M9E-06 842L595.2 842L595.2 842L595.2 -0.03997803L595.2 -0.03997803L9E-06 -0.03997803z" /></clipPath><clipPath id="354"><path d="M9E-06 842L595.2 842L595.2 842L595.2 -0.03997803L595.2 -0.03997803L9E-06 -0.03997803z" /></clipPath><clipPath id="355"><path d="M9E-06 842L595.2 842L595.2 842L595.2 -0.03997803L595.2 -0.03997803L9E-06 -0.03997803z" /></clipPath><clipPath id="356"><path d="M9E-06 842L595.2 842L595.2 842L595.2 -0.03997803L595.2 -0.03997803L9E-06 -0.03997803z" /></clipPath><clipPath id="357"><path d="M9E-06 842L595.2 842L595.2 842L595.2 -0.03997803L595.2 -0.03997803L9E-06 -0.03997803z" /></clipPath><clipPath id="358"><path d="M9E-06 842L595.2 842L595.2 842L595.2 -0.03997803L595.2 -0.03997803L9E-06 -0.03997803z" /></clipPath><clipPath id="359"><path d="M9E-06 842L595.2 842L595.2 842L595.2 -0.03997803L595.2 -0.03997803L9E-06 -0.03997803z" /></clipPath><clipPath id="360"><path d="M9E-06 842L595.2 842L595.2 842L595.2 -0.03997803L595.2 -0.03997803L9E-06 -0.03997803z" /></clipPath><clipPath id="361"><path d="M9E-06 842L595.2 842L595.2 842L595.2 -0.03997803L595.2 -0.03997803L9E-06 -0.03997803z" /></clipPath><clipPath id="362"><path d="M9E-06 842L595.2 842L595.2 842L595.2 -0.03997803L595.2 -0.03997803L9E-06 -0.03997803z" /></clipPath><clipPath id="363"><path d="M9E-06 842L595.2 842L595.2 842L595.2 -0.03997803L595.2 -0.03997803L9E-06 -0.03997803z" /></clipPath><clipPath id="364"><path d="M9E-06 842L595.2 842L595.2 842L595.2 -0.03997803L595.2 -0.03997803L9E-06 -0.03997803z" /></clipPath><clipPath id="365"><path d="M9E-06 842L595.2 842L595.2 842L595.2 -0.03997803L595.2 -0.03997803L9E-06 -0.03997803z" /></clipPath><clipPath id="366"><path d="M9E-06 842L595.2 842L595.2 842L595.2 -0.03997803L595.2 -0.03997803L9E-06 -0.03997803z" /></clipPath><clipPath id="367"><path d="M9E-06 842L595.2 842L595.2 842L595.2 -0.03997803L595.2 -0.03997803L9E-06 -0.03997803z" /></clipPath><clipPath id="368"><path d="M9E-06 842L595.2 842L595.2 842L595.2 -0.03997803L595.2 -0.03997803L9E-06 -0.03997803z" /></clipPath><clipPath id="369"><path d="M9E-06 842L595.2 842L595.2 842L595.2 -0.03997803L595.2 -0.03997803L9E-06 -0.03997803z" /></clipPath><clipPath id="370"><path d="M9E-06 842L595.2 842L595.2 842L595.2 -0.03997803L595.2 -0.03997803L9E-06 -0.03997803z" /></clipPath><clipPath id="371"><path d="M9E-06 842L595.2 842L595.2 842L595.2 -0.03997803L595.2 -0.03997803L9E-06 -0.03997803z" /></clipPath><clipPath id="372"><path d="M9E-06 842L595.2 842L595.2 842L595.2 -0.03997803L595.2 -0.03997803L9E-06 -0.03997803z" /></clipPath><clipPath id="373"><path d="M9E-06 842L595.2 842L595.2 842L595.2 -0.03997803L595.2 -0.03997803L9E-06 -0.03997803z" /></clipPath><clipPath id="374"><path d="M9E-06 842L595.2 842L595.2 842L595.2 -0.03997803L595.2 -0.03997803L9E-06 -0.03997803z" /></clipPath><clipPath id="375"><path d="M9E-06 842L595.2 842L595.2 842L595.2 -0.03997803L595.2 -0.03997803L9E-06 -0.03997803z" /></clipPath><clipPath id="376"><path d="M9E-06 842L595.2 842L595.2 842L595.2 -0.03997803L595.2 -0.03997803L9E-06 -0.03997803z" /></clipPath><clipPath id="377"><path d="M9E-06 842L595.2 842L595.2 842L595.2 -0.03997803L595.2 -0.03997803L9E-06 -0.03997803z" /></clipPath><clipPath id="378"><path d="M9E-06 842L595.2 842L595.2 842L595.2 -0.03997803L595.2 -0.03997803L9E-06 -0.03997803z" /></clipPath><clipPath id="379"><path d="M9E-06 842L595.2 842L595.2 842L595.2 -0.03997803L595.2 -0.03997803L9E-06 -0.03997803z" /></clipPath><clipPath id="380"><path d="M9E-06 842L595.2 842L595.2 842L595.2 -0.03997803L595.2 -0.03997803L9E-06 -0.03997803z" /></clipPath><clipPath id="381"><path d="M9E-06 842L595.2 842L595.2 842L595.2 -0.03997803L595.2 -0.03997803L9E-06 -0.03997803z" /></clipPath><clipPath id="382"><path d="M9E-06 842L595.2 842L595.2 842L595.2 -0.03997803L595.2 -0.03997803L9E-06 -0.03997803z" /></clipPath><clipPath id="383"><path d="M9E-06 842L595.2 842L595.2 842L595.2 -0.03997803L595.2 -0.03997803L9E-06 -0.03997803z" /></clipPath><clipPath id="384"><path d="M9E-06 842L595.2 842L595.2 842L595.2 -0.03997803L595.2 -0.03997803L9E-06 -0.03997803z" /></clipPath><clipPath id="385"><path d="M9E-06 842L595.2 842L595.2 842L595.2 -0.03997803L595.2 -0.03997803L9E-06 -0.03997803z" /></clipPath><clipPath id="386"><path d="M9E-06 842L595.2 842L595.2 842L595.2 -0.03997803L595.2 -0.03997803L9E-06 -0.03997803z" /></clipPath><clipPath id="387"><path d="M9E-06 842L595.2 842L595.2 842L595.2 -0.03997803L595.2 -0.03997803L9E-06 -0.03997803z" /></clipPath><clipPath id="388"><path d="M9E-06 842L595.2 842L595.2 842L595.2 -0.03997803L595.2 -0.03997803L9E-06 -0.03997803z" /></clipPath><clipPath id="389"><path d="M9E-06 842L595.2 842L595.2 842L595.2 -0.03997803L595.2 -0.03997803L9E-06 -0.03997803z" /></clipPath><clipPath id="390"><path d="M9E-06 842L595.2 842L595.2 842L595.2 -0.03997803L595.2 -0.03997803L9E-06 -0.03997803z" /></clipPath><clipPath id="391"><path d="M9E-06 842L595.2 842L595.2 842L595.2 -0.03997803L595.2 -0.03997803L9E-06 -0.03997803z" /></clipPath><clipPath id="392"><path d="M9E-06 842L595.2 842L595.2 842L595.2 -0.03997803L595.2 -0.03997803L9E-06 -0.03997803z" /></clipPath><clipPath id="393"><path d="M9E-06 842L595.2 842L595.2 842L595.2 -0.03997803L595.2 -0.03997803L9E-06 -0.03997803z" /></clipPath><clipPath id="394"><path d="M9E-06 842L595.2 842L595.2 842L595.2 -0.03997803L595.2 -0.03997803L9E-06 -0.03997803z" /></clipPath><clipPath id="395"><path d="M9E-06 842L595.2 842L595.2 842L595.2 -0.03997803L595.2 -0.03997803L9E-06 -0.03997803z" /></clipPath><clipPath id="396"><path d="M9E-06 842L595.2 842L595.2 842L595.2 -0.03997803L595.2 -0.03997803L9E-06 -0.03997803z" /></clipPath><clipPath id="397"><path d="M9E-06 842L595.2 842L595.2 842L595.2 -0.03997803L595.2 -0.03997803L9E-06 -0.03997803z" /></clipPath><clipPath id="398"><path d="M9E-06 842L595.2 842L595.2 842L595.2 -0.03997803L595.2 -0.03997803L9E-06 -0.03997803z" /></clipPath><clipPath id="399"><path d="M9E-06 842L595.2 842L595.2 842L595.2 -0.03997803L595.2 -0.03997803L9E-06 -0.03997803z" /></clipPath><clipPath id="400"><path d="M9E-06 842L595.2 842L595.2 842L595.2 -0.03997803L595.2 -0.03997803L9E-06 -0.03997803z" /></clipPath><clipPath id="401"><path d="M9E-06 842L595.2 842L595.2 842L595.2 -0.03997803L595.2 -0.03997803L9E-06 -0.03997803z" /></clipPath><clipPath id="402"><path d="M9E-06 842L595.2 842L595.2 842L595.2 -0.03997803L595.2 -0.03997803L9E-06 -0.03997803z" /></clipPath><clipPath id="403"><path d="M9E-06 842L595.2 842L595.2 842L595.2 -0.03997803L595.2 -0.03997803L9E-06 -0.03997803z" /></clipPath><clipPath id="404"><path d="M9E-06 842L595.2 842L595.2 842L595.2 -0.03997803L595.2 -0.03997803L9E-06 -0.03997803z" /></clipPath><clipPath id="405"><path d="M9E-06 842L595.2 842L595.2 842L595.2 -0.03997803L595.2 -0.03997803L9E-06 -0.03997803z" /></clipPath><clipPath id="406"><path d="M9E-06 842L595.2 842L595.2 842L595.2 -0.03997803L595.2 -0.03997803L9E-06 -0.03997803z" /></clipPath><clipPath id="407"><path d="M9E-06 842L595.2 842L595.2 842L595.2 -0.03997803L595.2 -0.03997803L9E-06 -0.03997803z" /></clipPath><clipPath id="408"><path d="M9E-06 842L595.2 842L595.2 842L595.2 -0.03997803L595.2 -0.03997803L9E-06 -0.03997803z" /></clipPath><clipPath id="409"><path d="M9E-06 842L595.2 842L595.2 842L595.2 -0.03997803L595.2 -0.03997803L9E-06 -0.03997803z" /></clipPath><clipPath id="410"><path d="M9E-06 842L595.2 842L595.2 842L595.2 -0.03997803L595.2 -0.03997803L9E-06 -0.03997803z" /></clipPath><clipPath id="411"><path d="M9E-06 842L595.2 842L595.2 842L595.2 -0.03997803L595.2 -0.03997803L9E-06 -0.03997803z" /></clipPath><clipPath id="412"><path d="M9E-06 842L595.2 842L595.2 842L595.2 -0.03997803L595.2 -0.03997803L9E-06 -0.03997803z" /></clipPath><clipPath id="413"><path d="M9E-06 842L595.2 842L595.2 842L595.2 -0.03997803L595.2 -0.03997803L9E-06 -0.03997803z" /></clipPath><clipPath id="414"><path d="M9E-06 842L595.2 842L595.2 842L595.2 -0.03997803L595.2 -0.03997803L9E-06 -0.03997803z" /></clipPath><clipPath id="415"><path d="M9E-06 842L595.2 842L595.2 842L595.2 -0.03997803L595.2 -0.03997803L9E-06 -0.03997803z" /></clipPath><clipPath id="416"><path d="M9E-06 842L595.2 842L595.2 842L595.2 -0.03997803L595.2 -0.03997803L9E-06 -0.03997803z" /></clipPath><clipPath id="417"><path d="M9E-06 842L595.2 842L595.2 842L595.2 -0.03997803L595.2 -0.03997803L9E-06 -0.03997803z" /></clipPath><clipPath id="418"><path d="M9E-06 842L595.2 842L595.2 842L595.2 -0.03997803L595.2 -0.03997803L9E-06 -0.03997803z" /></clipPath><clipPath id="419"><path d="M9E-06 842L595.2 842L595.2 842L595.2 -0.03997803L595.2 -0.03997803L9E-06 -0.03997803z" /></clipPath><clipPath id="420"><path d="M9E-06 842L595.2 842L595.2 842L595.2 -0.03997803L595.2 -0.03997803L9E-06 -0.03997803z" /></clipPath><clipPath id="421"><path d="M9E-06 842L595.2 842L595.2 842L595.2 -0.03997803L595.2 -0.03997803L9E-06 -0.03997803z" /></clipPath><clipPath id="422"><path d="M9E-06 842L595.2 842L595.2 842L595.2 -0.03997803L595.2 -0.03997803L9E-06 -0.03997803z" /></clipPath><clipPath id="423"><path d="M9E-06 842L595.2 842L595.2 842L595.2 -0.03997803L595.2 -0.03997803L9E-06 -0.03997803z" /></clipPath><clipPath id="424"><path d="M9E-06 842L595.2 842L595.2 842L595.2 -0.03997803L595.2 -0.03997803L9E-06 -0.03997803z" /></clipPath><clipPath id="425"><path d="M9E-06 842L595.2 842L595.2 842L595.2 -0.03997803L595.2 -0.03997803L9E-06 -0.03997803z" /></clipPath><clipPath id="426"><path d="M9E-06 842L595.2 842L595.2 842L595.2 -0.03997803L595.2 -0.03997803L9E-06 -0.03997803z" /></clipPath><clipPath id="427"><path d="M9E-06 842L595.2 842L595.2 842L595.2 -0.03997803L595.2 -0.03997803L9E-06 -0.03997803z" /></clipPath><clipPath id="428"><path d="M9E-06 842L595.2 842L595.2 842L595.2 -0.03997803L595.2 -0.03997803L9E-06 -0.03997803z" /></clipPath><clipPath id="429"><path d="M9E-06 842L595.2 842L595.2 842L595.2 -0.03997803L595.2 -0.03997803L9E-06 -0.03997803z" /></clipPath><clipPath id="430"><path d="M9E-06 842L595.2 842L595.2 842L595.2 -0.03997803L595.2 -0.03997803L9E-06 -0.03997803z" /></clipPath><clipPath id="431"><path d="M9E-06 842L595.2 842L595.2 842L595.2 -0.03997803L595.2 -0.03997803L9E-06 -0.03997803z" /></clipPath><clipPath id="432"><path d="M9E-06 842L595.2 842L595.2 842L595.2 -0.03997803L595.2 -0.03997803L9E-06 -0.03997803z" /></clipPath><clipPath id="433"><path d="M9E-06 842L595.2 842L595.2 842L595.2 -0.03997803L595.2 -0.03997803L9E-06 -0.03997803z" /></clipPath><clipPath id="434"><path d="M9E-06 842L595.2 842L595.2 842L595.2 -0.03997803L595.2 -0.03997803L9E-06 -0.03997803z" /></clipPath><clipPath id="435"><path d="M9E-06 842L595.2 842L595.2 842L595.2 -0.03997803L595.2 -0.03997803L9E-06 -0.03997803z" /></clipPath><clipPath id="436"><path d="M9E-06 842L595.2 842L595.2 842L595.2 -0.03997803L595.2 -0.03997803L9E-06 -0.03997803z" /></clipPath><clipPath id="437"><path d="M9E-06 842L595.2 842L595.2 842L595.2 -0.03997803L595.2 -0.03997803L9E-06 -0.03997803z" /></clipPath><clipPath id="438"><path d="M9E-06 842L595.2 842L595.2 842L595.2 -0.03997803L595.2 -0.03997803L9E-06 -0.03997803z" /></clipPath><clipPath id="439"><path d="M9E-06 842L595.2 842L595.2 842L595.2 -0.03997803L595.2 -0.03997803L9E-06 -0.03997803z" /></clipPath><clipPath id="440"><path d="M9E-06 842L595.2 842L595.2 842L595.2 -0.03997803L595.2 -0.03997803L9E-06 -0.03997803z" /></clipPath><clipPath id="441"><path d="M9E-06 842L595.2 842L595.2 842L595.2 -0.03997803L595.2 -0.03997803L9E-06 -0.03997803z" /></clipPath><clipPath id="442"><path d="M9E-06 842L595.2 842L595.2 842L595.2 -0.03997803L595.2 -0.03997803L9E-06 -0.03997803z" /></clipPath><clipPath id="443"><path d="M9E-06 842L595.2 842L595.2 842L595.2 -0.03997803L595.2 -0.03997803L9E-06 -0.03997803z" /></clipPath><clipPath id="444"><path d="M9E-06 842L595.2 842L595.2 842L595.2 -0.03997803L595.2 -0.03997803L9E-06 -0.03997803z" /></clipPath><clipPath id="445"><path d="M9E-06 842L595.2 842L595.2 842L595.2 -0.03997803L595.2 -0.03997803L9E-06 -0.03997803z" /></clipPath><clipPath id="446"><path d="M9E-06 842L595.2 842L595.2 842L595.2 -0.03997803L595.2 -0.03997803L9E-06 -0.03997803z" /></clipPath><clipPath id="447"><path d="M9E-06 842L595.2 842L595.2 842L595.2 -0.03997803L595.2 -0.03997803L9E-06 -0.03997803z" /></clipPath><clipPath id="448"><path d="M9E-06 842L595.2 842L595.2 842L595.2 -0.03997803L595.2 -0.03997803L9E-06 -0.03997803z" /></clipPath><clipPath id="449"><path d="M9E-06 842L595.2 842L595.2 842L595.2 -0.03997803L595.2 -0.03997803L9E-06 -0.03997803z" /></clipPath><clipPath id="450"><path d="M9E-06 842L595.2 842L595.2 842L595.2 -0.03997803L595.2 -0.03997803L9E-06 -0.03997803z" /></clipPath><clipPath id="451"><path d="M9E-06 842L595.2 842L595.2 842L595.2 -0.03997803L595.2 -0.03997803L9E-06 -0.03997803z" /></clipPath><clipPath id="452"><path d="M9E-06 842L595.2 842L595.2 842L595.2 -0.03997803L595.2 -0.03997803L9E-06 -0.03997803z" /></clipPath><clipPath id="453"><path d="M9E-06 842L595.2 842L595.2 842L595.2 -0.03997803L595.2 -0.03997803L9E-06 -0.03997803z" /></clipPath><clipPath id="454"><path d="M9E-06 842L595.2 842L595.2 842L595.2 -0.03997803L595.2 -0.03997803L9E-06 -0.03997803z" /></clipPath><clipPath id="455"><path d="M9E-06 842L595.2 842L595.2 842L595.2 -0.03997803L595.2 -0.03997803L9E-06 -0.03997803z" /></clipPath><clipPath id="456"><path d="M9E-06 842L595.2 842L595.2 842L595.2 -0.03997803L595.2 -0.03997803L9E-06 -0.03997803z" /></clipPath><clipPath id="457"><path d="M9E-06 842L595.2 842L595.2 842L595.2 -0.03997803L595.2 -0.03997803L9E-06 -0.03997803z" /></clipPath><clipPath id="458"><path d="M9E-06 842L595.2 842L595.2 842L595.2 -0.03997803L595.2 -0.03997803L9E-06 -0.03997803z" /></clipPath><clipPath id="459"><path d="M9E-06 842L595.2 842L595.2 842L595.2 -0.03997803L595.2 -0.03997803L9E-06 -0.03997803z" /></clipPath><clipPath id="460"><path d="M9E-06 842L595.2 842L595.2 842L595.2 -0.03997803L595.2 -0.03997803L9E-06 -0.03997803z" /></clipPath><clipPath id="461"><path d="M9E-06 842L595.2 842L595.2 842L595.2 -0.03997803L595.2 -0.03997803L9E-06 -0.03997803z" /></clipPath><clipPath id="462"><path d="M9E-06 842L595.2 842L595.2 842L595.2 -0.03997803L595.2 -0.03997803L9E-06 -0.03997803z" /></clipPath><clipPath id="463"><path d="M9E-06 842L595.2 842L595.2 842L595.2 -0.03997803L595.2 -0.03997803L9E-06 -0.03997803z" /></clipPath><clipPath id="464"><path d="M9E-06 842L595.2 842L595.2 842L595.2 -0.03997803L595.2 -0.03997803L9E-06 -0.03997803z" /></clipPath><clipPath id="465"><path d="M9E-06 842L595.2 842L595.2 842L595.2 -0.03997803L595.2 -0.03997803L9E-06 -0.03997803z" /></clipPath><clipPath id="466"><path d="M9E-06 842L595.2 842L595.2 842L595.2 -0.03997803L595.2 -0.03997803L9E-06 -0.03997803z" /></clipPath><clipPath id="467"><path d="M9E-06 842L595.2 842L595.2 842L595.2 -0.03997803L595.2 -0.03997803L9E-06 -0.03997803z" /></clipPath><clipPath id="468"><path d="M9E-06 842L595.2 842L595.2 842L595.2 -0.03997803L595.2 -0.03997803L9E-06 -0.03997803z" /></clipPath><clipPath id="469"><path d="M9E-06 842L595.2 842L595.2 842L595.2 -0.03997803L595.2 -0.03997803L9E-06 -0.03997803z" /></clipPath><clipPath id="470"><path d="M9E-06 842L595.2 842L595.2 842L595.2 -0.03997803L595.2 -0.03997803L9E-06 -0.03997803z" /></clipPath><clipPath id="471"><path d="M9E-06 842L595.2 842L595.2 842L595.2 -0.03997803L595.2 -0.03997803L9E-06 -0.03997803z" /></clipPath><clipPath id="472"><path d="M9E-06 842L595.2 842L595.2 842L595.2 -0.03997803L595.2 -0.03997803L9E-06 -0.03997803z" /></clipPath><clipPath id="473"><path d="M9E-06 842L595.2 842L595.2 842L595.2 -0.03997803L595.2 -0.03997803L9E-06 -0.03997803z" /></clipPath><clipPath id="474"><path d="M9E-06 842L595.2 842L595.2 842L595.2 -0.03997803L595.2 -0.03997803L9E-06 -0.03997803z" /></clipPath><clipPath id="475"><path d="M9E-06 842L595.2 842L595.2 842L595.2 -0.03997803L595.2 -0.03997803L9E-06 -0.03997803z" /></clipPath><clipPath id="476"><path d="M9E-06 842L595.2 842L595.2 842L595.2 -0.03997803L595.2 -0.03997803L9E-06 -0.03997803z" /></clipPath><clipPath id="477"><path d="M9E-06 842L595.2 842L595.2 842L595.2 -0.03997803L595.2 -0.03997803L9E-06 -0.03997803z" /></clipPath><clipPath id="478"><path d="M9E-06 842L595.2 842L595.2 842L595.2 -0.03997803L595.2 -0.03997803L9E-06 -0.03997803z" /></clipPath><clipPath id="479"><path d="M9E-06 842L595.2 842L595.2 842L595.2 -0.03997803L595.2 -0.03997803L9E-06 -0.03997803z" /></clipPath><clipPath id="480"><path d="M9E-06 842L595.2 842L595.2 842L595.2 -0.03997803L595.2 -0.03997803L9E-06 -0.03997803z" /></clipPath><clipPath id="481"><path d="M9E-06 842L595.2 842L595.2 842L595.2 -0.03997803L595.2 -0.03997803L9E-06 -0.03997803z" /></clipPath><clipPath id="482"><path d="M9E-06 842L595.2 842L595.2 842L595.2 -0.03997803L595.2 -0.03997803L9E-06 -0.03997803z" /></clipPath><clipPath id="483"><path d="M9E-06 842L595.2 842L595.2 842L595.2 -0.03997803L595.2 -0.03997803L9E-06 -0.03997803z" /></clipPath><clipPath id="484"><path d="M9E-06 842L595.2 842L595.2 842L595.2 -0.03997803L595.2 -0.03997803L9E-06 -0.03997803z" /></clipPath><clipPath id="485"><path d="M9E-06 842L595.2 842L595.2 842L595.2 -0.03997803L595.2 -0.03997803L9E-06 -0.03997803z" /></clipPath><clipPath id="486"><path d="M9E-06 842L595.2 842L595.2 842L595.2 -0.03997803L595.2 -0.03997803L9E-06 -0.03997803z" /></clipPath><clipPath id="487"><path d="M9E-06 842L595.2 842L595.2 842L595.2 -0.03997803L595.2 -0.03997803L9E-06 -0.03997803z" /></clipPath><clipPath id="488"><path d="M9E-06 842L595.2 842L595.2 842L595.2 -0.03997803L595.2 -0.03997803L9E-06 -0.03997803z" /></clipPath><clipPath id="489"><path d="M9E-06 842L595.2 842L595.2 842L595.2 -0.03997803L595.2 -0.03997803L9E-06 -0.03997803z" /></clipPath><clipPath id="490"><path d="M9E-06 842L595.2 842L595.2 842L595.2 -0.03997803L595.2 -0.03997803L9E-06 -0.03997803z" /></clipPath><clipPath id="491"><path d="M9E-06 842L595.2 842L595.2 842L595.2 -0.03997803L595.2 -0.03997803L9E-06 -0.03997803z" /></clipPath><clipPath id="492"><path d="M9E-06 842L595.2 842L595.2 842L595.2 -0.03997803L595.2 -0.03997803L9E-06 -0.03997803z" /></clipPath><clipPath id="493"><path d="M9E-06 842L595.2 842L595.2 842L595.2 -0.03997803L595.2 -0.03997803L9E-06 -0.03997803z" /></clipPath><clipPath id="494"><path d="M9E-06 842L595.2 842L595.2 842L595.2 -0.03997803L595.2 -0.03997803L9E-06 -0.03997803z" /></clipPath><clipPath id="495"><path d="M9E-06 842L595.2 842L595.2 842L595.2 -0.03997803L595.2 -0.03997803L9E-06 -0.03997803z" /></clipPath><clipPath id="496"><path d="M9E-06 842L595.2 842L595.2 842L595.2 -0.03997803L595.2 -0.03997803L9E-06 -0.03997803z" /></clipPath><clipPath id="497"><path d="M9E-06 842L595.2 842L595.2 842L595.2 -0.03997803L595.2 -0.03997803L9E-06 -0.03997803z" /></clipPath><clipPath id="498"><path d="M9E-06 842L595.2 842L595.2 842L595.2 -0.03997803L595.2 -0.03997803L9E-06 -0.03997803z" /></clipPath><clipPath id="499"><path d="M9E-06 842L595.2 842L595.2 842L595.2 -0.03997803L595.2 -0.03997803L9E-06 -0.03997803z" /></clipPath><clipPath id="500"><path d="M9E-06 842L595.2 842L595.2 842L595.2 -0.03997803L595.2 -0.03997803L9E-06 -0.03997803z" /></clipPath><clipPath id="501"><path d="M9E-06 842L595.2 842L595.2 842L595.2 -0.03997803L595.2 -0.03997803L9E-06 -0.03997803z" /></clipPath><clipPath id="502"><path d="M9E-06 842L595.2 842L595.2 842L595.2 -0.03997803L595.2 -0.03997803L9E-06 -0.03997803z" /></clipPath><clipPath id="503"><path d="M9E-06 842L595.2 842L595.2 842L595.2 -0.03997803L595.2 -0.03997803L9E-06 -0.03997803z" /></clipPath><clipPath id="504"><path d="M9E-06 842L595.2 842L595.2 842L595.2 -0.03997803L595.2 -0.03997803L9E-06 -0.03997803z" /></clipPath><clipPath id="505"><path d="M9E-06 842L595.2 842L595.2 842L595.2 -0.03997803L595.2 -0.03997803L9E-06 -0.03997803z" /></clipPath><clipPath id="506"><path d="M9E-06 842L595.2 842L595.2 842L595.2 -0.03997803L595.2 -0.03997803L9E-06 -0.03997803z" /></clipPath><clipPath id="507"><path d="M9E-06 842L595.2 842L595.2 842L595.2 -0.03997803L595.2 -0.03997803L9E-06 -0.03997803z" /></clipPath><clipPath id="508"><path d="M9E-06 842L595.2 842L595.2 842L595.2 -0.03997803L595.2 -0.03997803L9E-06 -0.03997803z" /></clipPath><clipPath id="509"><path d="M9E-06 842L595.2 842L595.2 842L595.2 -0.03997803L595.2 -0.03997803L9E-06 -0.03997803z" /></clipPath><clipPath id="510"><path d="M9E-06 842L595.2 842L595.2 842L595.2 -0.03997803L595.2 -0.03997803L9E-06 -0.03997803z" /></clipPath><clipPath id="511"><path d="M9E-06 842L595.2 842L595.2 842L595.2 -0.03997803L595.2 -0.03997803L9E-06 -0.03997803z" /></clipPath><clipPath id="512"><path d="M9E-06 842L595.2 842L595.2 842L595.2 -0.03997803L595.2 -0.03997803L9E-06 -0.03997803z" /></clipPath><clipPath id="513"><path d="M293.1 814.991L302.1 814.991L302.1 814.991L302.1 806L302.1 806L293.1 806z" /></clipPath><clipPath id="514"><path d="M478.2 814.991L523.2 814.991L523.2 814.991L523.2 806L523.2 806L478.2 806z" /></clipPath><clipPath id="515"><path d="M229.7011 522.7861L399.4068 353.0804L399.4068 353.0804L365.4996 319.1732L365.4996 319.1732L195.7939 488.8789z" /></clipPath></defs><g transform="matrix(1.333333 0 0 1.333333 0 0)"><g><g clip-path="url(#1)"><g clip-path="url(#2)"></g><g clip-path="url(#3)"></g><g clip-path="url(#4)"></g><g clip-path="url(#5)"></g><g clip-path="url(#6)"></g><g clip-path="url(#7)"></g><g clip-path="url(#8)"></g><g clip-path="url(#9)"></g><g clip-path="url(#10)"></g><g clip-path="url(#11)"></g><g clip-path="url(#12)"></g><g clip-path="url(#13)"></g><g clip-path="url(#14)"></g><g clip-path="url(#15)"></g><g clip-path="url(#16)"></g><g clip-path="url(#17)"></g><g clip-path="url(#18)"></g><g clip-path="url(#19)"></g><g clip-path="url(#20)"></g><g clip-path="url(#21)"></g><g clip-path="url(#22)"></g><g clip-path="url(#23)"></g><g clip-path="url(#24)"></g><g clip-path="url(#25)"></g><g clip-path="url(#26)"></g><g clip-path="url(#27)"></g><g clip-path="url(#28)"></g><g clip-path="url(#29)"></g><g clip-path="url(#30)"></g><g clip-path="url(#31)"></g><g clip-path="url(#32)"></g><g clip-path="url(#33)"></g><g clip-path="url(#34)"></g><g clip-path="url(#35)"></g><g clip-path="url(#36)"></g><g clip-path="url(#37)"></g><g clip-path="url(#38)"></g><g clip-path="url(#39)"></g><g clip-path="url(#40)"></g><g clip-path="url(#41)"></g><g clip-path="url(#42)"></g><g clip-path="url(#43)"></g><g clip-path="url(#44)"></g><g clip-path="url(#45)"></g><g clip-path="url(#46)"></g><g clip-path="url(#47)"></g><g clip-path="url(#48)"></g><g clip-path="url(#49)"></g><g clip-path="url(#50)"></g><g clip-path="url(#51)"></g><g clip-path="url(#52)"></g><g clip-path="url(#53)"></g><g clip-path="url(#54)"></g><g clip-path="url(#55)"></g><g clip-path="url(#56)"></g><g clip-path="url(#57)"></g><g clip-path="url(#58)"></g><g clip-path="url(#59)"></g><g clip-path="url(#60)"></g><g clip-path="url(#61)"></g><g clip-path="url(#62)"></g><g clip-path="url(#63)"></g><g clip-path="url(#64)"></g><g clip-path="url(#65)"></g><g clip-path="url(#66)"></g><g clip-path="url(#67)"></g><g clip-path="url(#68)"></g><g clip-path="url(#69)"></g><g clip-path="url(#70)"></g><g clip-path="url(#71)"></g><g clip-path="url(#72)"></g><g clip-path="url(#73)"></g><g clip-path="url(#74)"></g><g clip-path="url(#75)"></g><g clip-path="url(#76)"></g><g clip-path="url(#77)"></g><g clip-path="url(#78)"></g><g clip-path="url(#79)"></g><g clip-path="url(#80)"></g><g clip-path="url(#81)"></g><g clip-path="url(#82)"></g><g clip-path="url(#83)"></g><g clip-path="url(#84)"></g><g clip-path="url(#85)"></g><g clip-path="url(#86)"></g><g clip-path="url(#87)"></g><g clip-path="url(#88)"></g><g clip-path="url(#89)"></g><g clip-path="url(#90)"></g><g clip-path="url(#91)"></g><g clip-path="url(#92)"></g><g clip-path="url(#93)"></g><g clip-path="url(#94)"></g><g clip-path="url(#95)"></g><g clip-path="url(#96)"></g><g clip-path="url(#97)"></g><g clip-path="url(#98)"></g><g clip-path="url(#99)"></g><g clip-path="url(#100)"></g><g clip-path="url(#101)"></g><g clip-path="url(#102)"></g><g clip-path="url(#103)"></g><g clip-path="url(#104)"></g><g clip-path="url(#105)"></g><g clip-path="url(#106)"></g><g clip-path="url(#107)"></g><g clip-path="url(#108)"></g><g clip-path="url(#109)"></g><g clip-path="url(#110)"></g><g clip-path="url(#111)"></g><g clip-path="url(#112)"></g><g clip-path="url(#113)"></g><g clip-path="url(#114)"></g><g clip-path="url(#115)"></g><g clip-path="url(#116)"></g><g clip-path="url(#117)"></g><g clip-path="url(#118)"></g><g clip-path="url(#119)"></g><g clip-path="url(#120)"></g><g clip-path="url(#121)"></g><g clip-path="url(#122)"></g><g clip-path="url(#123)"></g><g clip-path="url(#124)"></g><g clip-path="url(#125)"></g><g clip-path="url(#126)"></g><g clip-path="url(#127)"></g><g clip-path="url(#128)"></g><g clip-path="url(#129)"></g><g clip-path="url(#130)"></g><g clip-path="url(#131)"></g><g clip-path="url(#132)"></g><g clip-path="url(#133)"></g><g clip-path="url(#134)"></g><g clip-path="url(#135)"></g><g clip-path="url(#136)"></g><g clip-path="url(#137)"></g><g clip-path="url(#138)"></g><g clip-path="url(#139)"></g><g clip-path="url(#140)"></g><g clip-path="url(#141)"></g><g clip-path="url(#142)"></g><g clip-path="url(#143)"></g><g clip-path="url(#144)"></g><g clip-path="url(#145)"></g><g clip-path="url(#146)"></g><g clip-path="url(#147)"></g><g clip-path="url(#148)"></g><g clip-path="url(#149)"></g><g clip-path="url(#150)"></g><g clip-path="url(#151)"></g><g clip-path="url(#152)"></g><g clip-path="url(#153)"></g><g clip-path="url(#154)"></g><g clip-path="url(#155)"></g><g clip-path="url(#156)"></g><g clip-path="url(#157)"></g><g clip-path="url(#158)"></g><g clip-path="url(#159)"></g><g clip-path="url(#160)"></g><g clip-path="url(#161)"></g><g clip-path="url(#162)"></g><g clip-path="url(#163)"></g><g clip-path="url(#164)"></g><g clip-path="url(#165)"></g><g clip-path="url(#166)"></g><g clip-path="url(#167)"></g><g clip-path="url(#168)"></g><g clip-path="url(#169)"></g><g clip-path="url(#170)"></g><g clip-path="url(#171)"></g><g clip-path="url(#172)"></g><g clip-path="url(#173)"></g><g clip-path="url(#174)"></g><g clip-path="url(#175)"></g><g clip-path="url(#176)"></g><g clip-path="url(#177)"></g><g clip-path="url(#178)"></g><g clip-path="url(#179)"></g><g clip-path="url(#180)"></g><g clip-path="url(#181)"></g><g clip-path="url(#182)"></g><g clip-path="url(#183)"></g><g clip-path="url(#184)"></g><g clip-path="url(#185)"></g><g clip-path="url(#186)"></g><g clip-path="url(#187)"></g><g clip-path="url(#188)"></g><g clip-path="url(#189)"></g><g clip-path="url(#190)"></g><g clip-path="url(#191)"></g><g clip-path="url(#192)"></g><g clip-path="url(#193)"></g><g clip-path="url(#194)"></g><g clip-path="url(#195)"></g><g clip-path="url(#196)"></g><g clip-path="url(#197)"></g><g clip-path="url(#198)"></g><g clip-path="url(#199)"></g><g clip-path="url(#200)"></g><g clip-path="url(#201)"></g><g clip-path="url(#202)"></g><g clip-path="url(#203)"></g><g clip-path="url(#204)"></g><g clip-path="url(#205)"></g><g clip-path="url(#206)"></g><g clip-path="url(#207)"></g><g clip-path="url(#208)"></g><g clip-path="url(#209)"></g><g clip-path="url(#210)"></g><g clip-path="url(#211)"></g><g clip-path="url(#212)"></g><g clip-path="url(#213)"></g><g clip-path="url(#214)"></g><g clip-path="url(#215)"></g><g clip-path="url(#216)"></g><g clip-path="url(#217)"></g><g clip-path="url(#218)"></g><g clip-path="url(#219)"></g><g clip-path="url(#220)"></g><g clip-path="url(#221)"></g><g clip-path="url(#222)"></g><g clip-path="url(#223)"></g><g clip-path="url(#224)"></g><g clip-path="url(#225)"></g><g clip-path="url(#226)"></g><g clip-path="url(#227)"></g><g clip-path="url(#228)"></g><g clip-path="url(#229)"></g><g clip-path="url(#230)"></g><g clip-path="url(#231)"></g><g clip-path="url(#232)"></g><g clip-path="url(#233)"></g><g clip-path="url(#234)"></g><g clip-path="url(#235)"></g><g clip-path="url(#236)"></g><g clip-path="url(#237)"></g><g clip-path="url(#238)"></g><g clip-path="url(#239)"></g><g clip-path="url(#240)"></g><g clip-path="url(#241)"></g><g clip-path="url(#242)"></g><g clip-path="url(#243)"></g><g clip-path="url(#244)"></g><g clip-path="url(#245)"></g><g clip-path="url(#246)"></g><g clip-path="url(#247)"></g><g clip-path="url(#248)"></g><g clip-path="url(#249)"></g><g clip-path="url(#250)"></g><g clip-path="url(#251)"></g><g clip-path="url(#252)"></g><g clip-path="url(#253)"></g><g clip-path="url(#254)"></g><g clip-path="url(#255)"></g><g clip-path="url(#256)"></g><g clip-path="url(#257)"></g><g clip-path="url(#258)"></g><g clip-path="url(#259)"></g><g clip-path="url(#260)"></g><g clip-path="url(#261)"></g><g clip-path="url(#262)"></g><g clip-path="url(#263)"></g><g clip-path="url(#264)"></g><g clip-path="url(#265)"></g><g clip-path="url(#266)"></g><g clip-path="url(#267)"></g><g clip-path="url(#268)"></g><g clip-path="url(#269)"></g><g clip-path="url(#270)"></g><g clip-path="url(#271)"></g><g clip-path="url(#272)"></g><g clip-path="url(#273)"></g><g clip-path="url(#274)"></g><g clip-path="url(#275)"></g><g clip-path="url(#276)"></g><g clip-path="url(#277)"></g><g clip-path="url(#278)"></g><g clip-path="url(#279)"></g><g clip-path="url(#280)"></g><g clip-path="url(#281)"></g><g clip-path="url(#282)"></g><g clip-path="url(#283)"></g><g clip-path="url(#284)"></g><g clip-path="url(#285)"></g><g clip-path="url(#286)"></g><g clip-path="url(#287)"></g><g clip-path="url(#288)"></g><g clip-path="url(#289)"></g><g clip-path="url(#290)"></g><g clip-path="url(#291)"></g><g clip-path="url(#292)"></g><g clip-path="url(#293)"></g><g clip-path="url(#294)"></g><g clip-path="url(#295)"></g><g clip-path="url(#296)"></g><g clip-path="url(#297)"></g><g clip-path="url(#298)"></g><g clip-path="url(#299)"></g><g clip-path="url(#300)"></g><g clip-path="url(#301)"></g><g clip-path="url(#302)"></g><g clip-path="url(#303)"></g><g clip-path="url(#304)"></g><g clip-path="url(#305)"></g><g clip-path="url(#306)"></g><g clip-path="url(#307)"></g><g clip-path="url(#308)"></g><g clip-path="url(#309)"></g><g clip-path="url(#310)"></g><g clip-path="url(#311)"></g><g clip-path="url(#312)"></g><g clip-path="url(#313)"></g><g clip-path="url(#314)"></g><g clip-path="url(#315)"></g><g clip-path="url(#316)"></g><g clip-path="url(#317)"></g><g clip-path="url(#318)"></g><g clip-path="url(#319)"></g><g clip-path="url(#320)"></g><g clip-path="url(#321)"></g><g clip-path="url(#322)"></g><g clip-path="url(#323)"></g><g clip-path="url(#324)"></g><g clip-path="url(#325)"></g><g clip-path="url(#326)"></g><g clip-path="url(#327)"></g><g clip-path="url(#328)"></g><g clip-path="url(#329)"></g><g clip-path="url(#330)"></g><g clip-path="url(#331)"></g><g clip-path="url(#332)"></g><g clip-path="url(#333)"></g><g clip-path="url(#334)"></g><g clip-path="url(#335)"></g><g clip-path="url(#336)"></g><g clip-path="url(#337)"></g><g clip-path="url(#338)"></g><g clip-path="url(#339)"></g><g clip-path="url(#340)"></g><g clip-path="url(#341)"></g><g clip-path="url(#342)"></g><g clip-path="url(#343)"></g><g clip-path="url(#344)"></g><g clip-path="url(#345)"></g><g clip-path="url(#346)"></g><g clip-path="url(#347)"></g><g clip-path="url(#348)"></g><g clip-path="url(#349)"></g><g clip-path="url(#350)"></g><g clip-path="url(#351)"></g><g clip-path="url(#352)"></g><g clip-path="url(#353)"></g><g clip-path="url(#354)"></g><g clip-path="url(#355)"></g><g clip-path="url(#356)"></g><g clip-path="url(#357)"></g><g clip-path="url(#358)"></g><g clip-path="url(#359)"></g><g clip-path="url(#360)"></g><g clip-path="url(#361)"></g><g clip-path="url(#362)"></g><g clip-path="url(#363)"></g><g clip-path="url(#364)"></g><g clip-path="url(#365)"></g><g clip-path="url(#366)"></g><g clip-path="url(#367)"></g><g clip-path="url(#368)"></g><g clip-path="url(#369)"></g><g clip-path="url(#370)"></g><g clip-path="url(#371)"></g><g clip-path="url(#372)"></g><g clip-path="url(#373)"></g><g clip-path="url(#374)"></g><g clip-path="url(#375)"></g><g clip-path="url(#376)"></g><g clip-path="url(#377)"></g><g clip-path="url(#378)"></g><g clip-path="url(#379)"></g><g clip-path="url(#380)"></g><g clip-path="url(#381)"></g><g clip-path="url(#382)"></g><g clip-path="url(#383)"></g><g clip-path="url(#384)"></g><g clip-path="url(#385)"></g><g clip-path="url(#386)"></g><g clip-path="url(#387)"></g><g clip-path="url(#388)"></g><g clip-path="url(#389)"></g><g clip-path="url(#390)"></g><g clip-path="url(#391)"></g><g clip-path="url(#392)"></g><g clip-path="url(#393)"></g><g clip-path="url(#394)"></g><g clip-path="url(#395)"></g><g clip-path="url(#396)"></g><g clip-path="url(#397)"></g><g clip-path="url(#398)"></g><g clip-path="url(#399)"></g><g clip-path="url(#400)"></g><g clip-path="url(#401)"></g><g clip-path="url(#402)"></g><g clip-path="url(#403)"></g><g clip-path="url(#404)"></g><g clip-path="url(#405)"></g><g clip-path="url(#406)"></g><g clip-path="url(#407)"></g><g clip-path="url(#408)"></g><g clip-path="url(#409)"></g><g clip-path="url(#410)"></g><g clip-path="url(#411)"></g><g clip-path="url(#412)"></g><g clip-path="url(#413)"></g><g clip-path="url(#414)"></g><g clip-path="url(#415)"></g><g clip-path="url(#416)"></g><g clip-path="url(#417)"></g><g clip-path="url(#418)"></g><g clip-path="url(#419)"></g><g clip-path="url(#420)"></g><g clip-path="url(#421)"></g><g clip-path="url(#422)"></g><g clip-path="url(#423)"></g><g clip-path="url(#424)"></g><g clip-path="url(#425)"></g><g clip-path="url(#426)"></g><g clip-path="url(#427)"></g><g clip-path="url(#428)"></g><g clip-path="url(#429)"></g><g clip-path="url(#430)"></g><g clip-path="url(#431)"></g><g clip-path="url(#432)"></g><g clip-path="url(#433)"></g><g clip-path="url(#434)"></g><g clip-path="url(#435)"></g><g clip-path="url(#436)"></g><g clip-path="url(#437)"></g><g clip-path="url(#438)"></g><g clip-path="url(#439)"></g><g clip-path="url(#440)"></g><g clip-path="url(#441)"></g><g clip-path="url(#442)"></g><g clip-path="url(#443)"></g><g clip-path="url(#444)"></g><g clip-path="url(#445)"></g><g clip-path="url(#446)"></g><g clip-path="url(#447)"></g><g clip-path="url(#448)"></g><g clip-path="url(#449)"></g><g clip-path="url(#450)"></g><g clip-path="url(#451)"></g><g clip-path="url(#452)"></g><g clip-path="url(#453)"></g><g clip-path="url(#454)"></g><g clip-path="url(#455)"></g><g clip-path="url(#456)"></g><g clip-path="url(#457)"></g><g clip-path="url(#458)"></g><g clip-path="url(#459)"></g><g clip-path="url(#460)"></g><g clip-path="url(#461)"></g><g clip-path="url(#462)"></g><g clip-path="url(#463)"></g><g clip-path="url(#464)"></g><g clip-path="url(#465)"></g><g clip-path="url(#466)"></g><g clip-path="url(#467)"></g><g clip-path="url(#468)"></g><g clip-path="url(#469)"></g><g clip-path="url(#470)"></g><g clip-path="url(#471)"></g><g clip-path="url(#472)"></g><g clip-path="url(#473)"></g><g clip-path="url(#474)"></g><g clip-path="url(#475)"></g><g clip-path="url(#476)"></g><g clip-path="url(#477)"></g><g clip-path="url(#478)"></g><g clip-path="url(#479)"></g><g clip-path="url(#480)"></g><g clip-path="url(#481)"></g><g clip-path="url(#482)"></g><g clip-path="url(#483)"></g><g clip-path="url(#484)"></g><g clip-path="url(#485)"></g><g clip-path="url(#486)"></g><g clip-path="url(#487)"></g><g clip-path="url(#488)"></g><g clip-path="url(#489)"></g><g clip-path="url(#490)"></g><g clip-path="url(#491)"></g><g clip-path="url(#492)"></g><g clip-path="url(#493)"></g><g clip-path="url(#494)"></g><g clip-path="url(#495)"></g><g clip-path="url(#496)"></g><g clip-path="url(#497)"></g><g clip-path="url(#498)"></g><g clip-path="url(#499)"></g><g clip-path="url(#500)"></g><g clip-path="url(#501)"></g><g clip-path="url(#502)"></g><g clip-path="url(#503)"></g><g clip-path="url(#504)"></g><g clip-path="url(#505)"></g><g clip-path="url(#506)"></g><g clip-path="url(#507)"></g><g clip-path="url(#508)"></g><g clip-path="url(#509)"></g><g clip-path="url(#510)"></g><g clip-path="url(#511)"></g><g clip-path="url(#512)"></g><g><g clip-path="url(#513)"></g></g><g><g clip-path="url(#514)"></g></g><g><g clip-path="url(#515)"><path transform="matrix(1 0 0 -1 0 842)" d="M224.5516 347.1676C 224.2865 347.4327 224.1539 347.6537 224.1539 347.8305C 224.0655 347.9189 223.9329 348.1398 223.7561 348.4934C 223.2258 349.3773 221.1045 349.8192 218.9832 347.6979C 216.3315 345.0462 216.9944 340.1407 221.2371 335.898C 225.1261 332.009 229.192 330.8599 232.9043 334.5722C 235.3792 337.0471 235.2466 340.6268 233.8324 343.4553L233.8324 343.4553L234.7605 343.853C 236.705 340.4943 236.926 336.4726 233.5672 333.1138C 229.3246 328.8712 223.9329 328.9596 218.9832 333.9093C 214.5637 338.3287 214.2102 344.5159 218.4528 348.7586C 221.458 351.7638 225.2145 351.5428 226.8055 349.9518C 227.8662 348.8911 227.822 348.0515 226.9381 347.1676C 226.231 346.4604 225.2587 346.4604 224.5516 347.1676z" stroke="none" fill="#000000" fill-rule="evenodd" /><path transform="matrix(1 0 0 -1 0 842)" d="M250.1401 349.9518L249.3446 349.1563L249.3446 349.1563L231.8437 357.6416C 230.9598 358.1719 229.8991 358.0835 229.192 357.3764L229.192 357.3764L228.5291 356.7135L228.5291 356.7135L227.7336 357.509L227.7336 357.509L233.4347 363.2101L233.4347 363.2101L234.2301 362.4146L234.2301 362.4146L233.6998 361.8842C 232.6392 360.8236 233.0811 360.3816 233.4347 360.0281C 233.7882 359.6745 234.1418 359.4094 234.4953 359.2326L234.4953 359.2326L246.9581 353.1338L246.9581 353.1338L247.2232 353.399L247.2232 353.399L241.257 365.7291C 240.9919 366.3478 240.7709 366.7456 240.5941 366.9224C 240.4173 367.0992 239.4009 367.5853 238.3402 366.5246L238.3402 366.5246L238.075 366.2595L238.075 366.2595L237.2795 367.055L237.2795 367.055L242.0525 371.8279L242.0525 371.8279L242.848 371.0324L242.848 371.0324L242.5829 370.7673C 241.5222 369.7066 241.6106 368.5576 242.3177 366.7898z" stroke="none" fill="#000000" fill-rule="evenodd" /><path transform="matrix(1 0 0 -1 0 842)" d="M240.5941 386.0143C 242.1851 387.6053 243.2458 389.373 243.7761 391.3176L243.7761 391.3176L244.0413 391.5827L244.0413 391.5827L265.9174 369.7066C 266.6245 368.9995 267.4642 369.1321 268.1713 369.8392L268.1713 369.8392L271.2207 372.8886L271.2207 372.8886L272.0162 372.0931L272.0162 372.0931L261.6747 361.7516L261.6747 361.7516L260.8792 362.5471L260.8792 362.5471L263.9286 365.5966C 264.8125 366.4804 264.7683 367.1433 264.0612 367.8505L264.0612 367.8505L245.1019 386.8098C 244.3948 387.5168 243.7319 387.5611 242.848 386.6772L242.848 386.6772L239.9312 383.7603L239.9312 383.7603L239.1357 384.5558z" stroke="none" fill="#000000" fill-rule="evenodd" /><path transform="matrix(1 0 0 -1 0 842)" d="M270.0274 395.8254C 269.3203 396.5325 268.5248 396.7093 267.641 395.8254L267.641 395.8254L264.8567 393.0411L264.8567 393.0411L264.0612 393.8366L264.0612 393.8366L265.3871 395.1625C 266.978 396.7534 268.1713 398.3886 268.7016 400.3332L268.7016 400.3332L268.9668 400.5983L268.9668 400.5983L282.8879 386.6772C 283.5951 385.9701 284.4348 386.1027 285.1418 386.8098L285.1418 386.8098L287.9261 389.594L287.9261 389.594L288.7216 388.7985L288.7216 388.7985L278.9105 378.9874L278.9105 378.9874L278.115 379.7829L278.115 379.7829L280.8992 382.5671C 281.7831 383.451 281.7389 384.1139 281.0318 384.821zM261.0118 406.9623C 261.8957 407.8462 263.4425 407.9788 264.3264 407.0949C 265.2103 406.211 265.2103 404.5316 264.3264 403.6477C 263.4425 402.7639 261.7631 402.7639 260.8792 403.6477C 259.9954 404.5316 260.1279 406.0784 261.0118 406.9623z" stroke="none" fill="#000000" fill-rule="evenodd" /><path transform="matrix(1 0 0 -1 0 842)" d="M281.1644 415.4476C 277.4521 419.1599 278.3359 423.7561 281.1644 426.5845C 284.1696 429.5897 286.9096 429.8549 288.3239 428.4407C 289.0309 427.7336 289.3845 426.8497 288.3239 425.789C 287.6167 425.0819 286.8212 424.9052 285.9373 425.789C 285.849 425.8774 285.7606 426.0542 285.6722 426.3194C 285.4954 426.4962 285.3628 426.6287 285.2744 426.7171C 284.5673 427.4242 283.7719 427.601 281.8273 425.6564C 279.706 423.5351 279.4408 420.8835 282.6228 417.7015L282.6228 417.7015L285.2744 415.0498L285.2744 415.0498L290.8429 420.6183L290.8429 420.6183L291.6384 419.8228L291.6384 419.8228L286.0699 414.2543L286.0699 414.2543L298.2675 402.0568C 298.9746 401.3496 299.8143 401.4822 300.5214 402.1893L300.5214 402.1893L303.7034 405.3713L303.7034 405.3713L304.4989 404.5758L304.4989 404.5758L294.8204 394.8973L294.8204 394.8973L294.0249 395.6928L294.0249 395.6928L296.2788 397.9467C 297.1627 398.8306 297.1185 399.4935 296.4114 400.2006L296.4114 400.2006L284.2138 412.3982L284.2138 412.3982L280.1037 408.2881L280.1037 408.2881L279.3082 409.0836L279.3082 409.0836L283.4183 413.1937z" stroke="none" fill="#000000" fill-rule="evenodd" /><path transform="matrix(1 0 0 -1 0 842)" d="M313.7797 430.2968C 310.0674 434.3627 306.3109 434.7604 303.836 432.2856C 301.1843 429.6339 301.5821 425.5239 305.2944 421.8116zM306.0899 421.0161C 310.8629 416.2431 314.752 416.4199 317.7572 419.425C 320.0553 421.7231 320.1878 424.861 318.9504 427.5126L318.9504 427.5126L319.8785 427.9103C 321.2927 425.4355 321.7346 421.2812 318.5527 418.0992C 314.4868 414.0334 308.9183 413.945 303.9686 418.8947C 299.5492 423.3141 299.1956 429.5013 302.9079 433.2137C 306.2667 436.5724 311.1722 437.4121 316.8291 431.7552z" stroke="none" fill="#000000" fill-rule="evenodd" /><path transform="matrix(1 0 0 -1 0 842)" d="M330.8828 430.1642C 329.8222 429.1036 328.1428 428.9268 326.9054 430.1642C 325.6679 431.4017 325.8447 433.0811 326.9054 434.1417C 327.966 435.2024 329.8222 435.2024 330.8828 434.1417C 332.1203 432.9043 331.9435 431.2249 330.8828 430.1642z" stroke="none" fill="#000000" fill-rule="evenodd" /><path transform="matrix(1 0 0 -1 0 842)" d="M344.2737 444.3506L343.4782 445.1461L343.4782 445.1461L344.1411 445.809C 345.025 446.6929 344.9808 447.3558 344.2737 448.0629L344.2737 448.0629L332.8716 459.465C 332.3412 459.9953 331.9435 460.1279 331.4132 459.5976L331.4132 459.5976L330.3525 458.5369L330.3525 458.5369L329.557 459.3324L329.557 459.3324L330.4851 460.2605C 331.369 461.1444 332.0319 462.0724 332.2087 463.3099L332.2087 463.3099L332.4738 463.5751L332.4738 463.5751L335.5232 460.5257C 335.3464 463.8844 336.0094 466.3151 337.7771 468.0829C 340.7823 471.0881 343.7433 470.8671 346.9254 467.6851L346.9254 467.6851L355.4106 459.1998C 356.1177 458.4927 356.9574 458.6253 357.6645 459.3324L357.6645 459.3324L358.3275 459.9953L358.3275 459.9953L359.1229 459.1998L359.1229 459.1998L353.5544 453.6314L353.5544 453.6314L352.759 454.4269L352.759 454.4269L353.4219 455.0898C 354.3058 455.9737 354.2616 456.6366 353.5544 457.3437L353.5544 457.3437L344.6714 466.2267C 342.5501 468.348 340.473 468.6574 338.7052 466.8896C 337.1142 465.2986 336.4513 462.426 336.9816 459.0673L336.9816 459.0673L346.1298 449.9191C 346.8369 449.2119 347.6766 449.3445 348.3837 450.0516L348.3837 450.0516L349.0466 450.7145L349.0466 450.7145L349.8422 449.9191z" stroke="none" fill="#000000" fill-rule="evenodd" /><path transform="matrix(1 0 0 -1 0 842)" d="M364.6914 481.2086C 360.9791 485.2744 357.2226 485.6721 354.7477 483.1973C 352.0961 480.5456 352.4938 476.4356 356.2061 472.7233zM357.0016 471.9278C 361.7746 467.1548 365.6637 467.3315 368.6689 470.3368C 370.967 472.6349 371.0995 475.7726 369.8621 478.4243L369.8621 478.4243L370.7902 478.8221C 372.2044 476.3472 372.6464 472.1929 369.4644 469.011C 365.3985 464.9451 359.83 464.8567 354.8803 469.8065C 350.4609 474.2259 350.1073 480.4131 353.8196 484.1254C 357.1784 487.4841 362.0839 488.3238 367.7408 482.6669z" stroke="none" fill="#000000" fill-rule="evenodd" /><path transform="matrix(1 0 0 -1 0 842)" d="M380.8665 489.4286C 383.3413 486.9538 384.9323 487.1306 386.7001 488.8983C 388.4679 490.6661 388.3353 492.92 386.5675 495.3949L386.5675 495.3949L387.4956 495.7926C 389.6169 492.9642 389.8379 489.6497 387.363 487.1747C 384.7114 484.5231 381.8387 484.7441 378.48 488.1028L378.48 488.1028L369.1992 497.3836L369.1992 497.3836L365.2217 493.4061L365.2217 493.4061L364.4262 494.2016L364.4262 494.2016L365.4869 495.2623C 367.6082 497.3836 367.6966 500.0353 365.2217 503.2173L365.2217 503.2173L364.2936 504.4105L364.2936 504.4105L365.0891 505.206L365.0891 505.206L370.2599 500.0353L370.2599 500.0353L375.5632 505.3386L375.5632 505.3386L376.3586 504.5431L376.3586 504.5431L371.0554 499.2397z" stroke="none" fill="#000000" fill-rule="evenodd" /></g></g></g></g></g></svg>