<svg xmlns="http://www.w3.org/2000/svg" xmlns:xlink="http://www.w3.org/1999/xlink" id="body_48" preserveAspectRatio="xMinYMin meet" viewBox="0 0 793 1123"><defs><clipPath id="1"><path d="M0 842L0 -0.03997803L0 -0.03997803L595.2 -0.03997803L595.2 -0.03997803L595.2 842L595.2 842L0 842z" /></clipPath><clipPath id="2"><path d="M84.024 104.86L297.044 104.86L297.044 104.86L297.044 74.97998L297.044 74.97998L84.024 74.97998z" /></clipPath><clipPath id="3"><path d="M84.024 104.86L297.044 104.86L297.044 104.86L297.044 74.97998L297.044 74.97998L84.024 74.97998z" /></clipPath><clipPath id="4"><path d="M297.05 104.86L510.1 104.86L510.1 104.86L510.1 74.97998L510.1 74.97998L297.05 74.97998z" /></clipPath><clipPath id="5"><path d="M297.05 104.86L510.1 104.86L510.1 104.86L510.1 74.97998L510.1 74.97998L297.05 74.97998z" /></clipPath><clipPath id="6"><path d="M297.05 104.86L510.1 104.86L510.1 104.86L510.1 74.97998L510.1 74.97998L297.05 74.97998z" /></clipPath><clipPath id="7"><path d="M84.024 139.18L297.044 139.18L297.044 139.18L297.044 109.3L297.044 109.3L84.024 109.3z" /></clipPath><clipPath id="8"><path d="M84.024 139.18L297.044 139.18L297.044 139.18L297.044 109.3L297.044 109.3L84.024 109.3z" /></clipPath><clipPath id="9"><path d="M297.05 139.18L510.1 139.18L510.1 139.18L510.1 109.3L510.1 109.3L297.05 109.3z" /></clipPath><clipPath id="10"><path d="M297.05 139.18L510.1 139.18L510.1 139.18L510.1 109.3L510.1 109.3L297.05 109.3z" /></clipPath><clipPath id="11"><path d="M297.05 139.18L510.1 139.18L510.1 139.18L510.1 109.3L510.1 109.3L297.05 109.3z" /></clipPath><clipPath id="12"><path d="M84.024 173.62L297.044 173.62L297.044 173.62L297.044 143.74L297.044 143.74L84.024 143.74z" /></clipPath><clipPath id="13"><path d="M84.024 173.62L297.044 173.62L297.044 173.62L297.044 143.74L297.044 143.74L84.024 143.74z" /></clipPath><clipPath id="14"><path d="M297.05 173.62L510.1 173.62L510.1 173.62L510.1 143.74L510.1 143.74L297.05 143.74z" /></clipPath><clipPath id="15"><path d="M297.05 173.62L510.1 173.62L510.1 173.62L510.1 143.74L510.1 143.74L297.05 143.74z" /></clipPath><clipPath id="16"><path d="M84.024 207.94L297.044 207.94L297.044 207.94L297.044 178.06L297.044 178.06L84.024 178.06z" /></clipPath><clipPath id="17"><path d="M84.024 207.94L297.044 207.94L297.044 207.94L297.044 178.06L297.044 178.06L84.024 178.06z" /></clipPath><clipPath id="18"><path d="M297.05 207.94L510.1 207.94L510.1 207.94L510.1 178.06L510.1 178.06L297.05 178.06z" /></clipPath><clipPath id="19"><path d="M297.05 207.94L510.1 207.94L510.1 207.94L510.1 178.06L510.1 178.06L297.05 178.06z" /></clipPath><clipPath id="20"><path d="M84.024 242.41L297.044 242.41L297.044 242.41L297.044 212.506L297.044 212.506L84.024 212.506z" /></clipPath><clipPath id="21"><path d="M84.024 242.41L297.044 242.41L297.044 242.41L297.044 212.506L297.044 212.506L84.024 212.506z" /></clipPath><clipPath id="22"><path d="M297.05 242.41L510.1 242.41L510.1 242.41L510.1 212.506L510.1 212.506L297.05 212.506z" /></clipPath><clipPath id="23"><path d="M297.05 242.41L510.1 242.41L510.1 242.41L510.1 212.506L510.1 212.506L297.05 212.506z" /></clipPath><clipPath id="24"><path d="M84.024 294.61L297.044 294.61L297.044 294.61L297.044 246.85L297.044 246.85L84.024 246.85z" /></clipPath><clipPath id="25"><path d="M84.024 294.61L297.044 294.61L297.044 294.61L297.044 246.85L297.044 246.85L84.024 246.85z" /></clipPath><clipPath id="26"><path d="M297.05 294.61L510.1 294.61L510.1 294.61L510.1 246.85L510.1 246.85L297.05 246.85z" /></clipPath><clipPath id="27"><path d="M297.05 294.61L510.1 294.61L510.1 294.61L510.1 246.85L510.1 246.85L297.05 246.85z" /></clipPath><clipPath id="28"><path d="M297.05 294.61L510.1 294.61L510.1 294.61L510.1 246.85L510.1 246.85L297.05 246.85z" /></clipPath><clipPath id="29"><path d="M297.05 294.61L510.1 294.61L510.1 294.61L510.1 246.85L510.1 246.85L297.05 246.85z" /></clipPath><clipPath id="30"><path d="M297.05 294.61L510.1 294.61L510.1 294.61L510.1 246.85L510.1 246.85L297.05 246.85z" /></clipPath><clipPath id="31"><path d="M297.05 294.61L510.1 294.61L510.1 294.61L510.1 246.85L510.1 246.85L297.05 246.85z" /></clipPath><clipPath id="32"><path d="M297.05 294.61L510.1 294.61L510.1 294.61L510.1 246.85L510.1 246.85L297.05 246.85z" /></clipPath><clipPath id="33"><path d="M297.05 294.61L510.1 294.61L510.1 294.61L510.1 246.85L510.1 246.85L297.05 246.85z" /></clipPath><clipPath id="34"><path d="M297.05 294.61L510.1 294.61L510.1 294.61L510.1 246.85L510.1 246.85L297.05 246.85z" /></clipPath><clipPath id="35"><path d="M84.024 346.93L297.044 346.93L297.044 346.93L297.044 299.17L297.044 299.17L84.024 299.17z" /></clipPath><clipPath id="36"><path d="M84.024 346.93L297.044 346.93L297.044 346.93L297.044 299.17L297.044 299.17L84.024 299.17z" /></clipPath><clipPath id="37"><path d="M297.05 346.93L510.1 346.93L510.1 346.93L510.1 299.17L510.1 299.17L297.05 299.17z" /></clipPath><clipPath id="38"><path d="M297.05 346.93L510.1 346.93L510.1 346.93L510.1 299.17L510.1 299.17L297.05 299.17z" /></clipPath><clipPath id="39"><path d="M297.05 346.93L510.1 346.93L510.1 346.93L510.1 299.17L510.1 299.17L297.05 299.17z" /></clipPath><clipPath id="40"><path d="M84.024 381.25L297.044 381.25L297.044 381.25L297.044 351.37L297.044 351.37L84.024 351.37z" /></clipPath><clipPath id="41"><path d="M84.024 381.25L297.044 381.25L297.044 381.25L297.044 351.37L297.044 351.37L84.024 351.37z" /></clipPath><clipPath id="42"><path d="M297.05 381.25L510.1 381.25L510.1 381.25L510.1 351.37L510.1 351.37L297.05 351.37z" /></clipPath><clipPath id="43"><path d="M297.05 381.25L510.1 381.25L510.1 381.25L510.1 351.37L510.1 351.37L297.05 351.37z" /></clipPath><clipPath id="44"><path d="M84.024 415.71L297.044 415.71L297.044 415.71L297.044 385.806L297.044 385.806L84.024 385.806z" /></clipPath><clipPath id="45"><path d="M84.024 415.71L297.044 415.71L297.044 415.71L297.044 385.806L297.044 385.806L84.024 385.806z" /></clipPath><clipPath id="46"><path d="M297.05 415.71L510.1 415.71L510.1 415.71L510.1 385.806L510.1 385.806L297.05 385.806z" /></clipPath><clipPath id="47"><path d="M297.05 415.71L510.1 415.71L510.1 415.71L510.1 385.806L510.1 385.806L297.05 385.806z" /></clipPath><clipPath id="48"><path d="M84.024 450.03L297.044 450.03L297.044 450.03L297.044 420.15L297.044 420.15L84.024 420.15z" /></clipPath><clipPath id="49"><path d="M84.024 450.03L297.044 450.03L297.044 450.03L297.044 420.15L297.044 420.15L84.024 420.15z" /></clipPath><clipPath id="50"><path d="M297.05 450.03L510.1 450.03L510.1 450.03L510.1 420.15L510.1 420.15L297.05 420.15z" /></clipPath><clipPath id="51"><path d="M297.05 450.03L510.1 450.03L510.1 450.03L510.1 420.15L510.1 420.15L297.05 420.15z" /></clipPath><clipPath id="52"><path d="M84.024 484.47L297.044 484.47L297.044 484.47L297.044 454.59L297.044 454.59L84.024 454.59z" /></clipPath><clipPath id="53"><path d="M84.024 484.47L297.044 484.47L297.044 484.47L297.044 454.59L297.044 454.59L84.024 454.59z" /></clipPath><clipPath id="54"><path d="M297.05 484.47L510.1 484.47L510.1 484.47L510.1 454.59L510.1 454.59L297.05 454.59z" /></clipPath><clipPath id="55"><path d="M297.05 484.47L510.1 484.47L510.1 484.47L510.1 454.59L510.1 454.59L297.05 454.59z" /></clipPath><clipPath id="56"><path d="M84.024 518.79L297.044 518.79L297.044 518.79L297.044 488.91L297.044 488.91L84.024 488.91z" /></clipPath><clipPath id="57"><path d="M84.024 518.79L297.044 518.79L297.044 518.79L297.044 488.91L297.044 488.91L84.024 488.91z" /></clipPath><clipPath id="58"><path d="M297.05 518.79L510.1 518.79L510.1 518.79L510.1 488.91L510.1 488.91L297.05 488.91z" /></clipPath><clipPath id="59"><path d="M297.05 518.79L510.1 518.79L510.1 518.79L510.1 488.91L510.1 488.91L297.05 488.91z" /></clipPath><clipPath id="60"><path d="M84.024 553.23L297.044 553.23L297.044 553.23L297.044 523.35L297.044 523.35L84.024 523.35z" /></clipPath><clipPath id="61"><path d="M84.024 553.23L297.044 553.23L297.044 553.23L297.044 523.35L297.044 523.35L84.024 523.35z" /></clipPath><clipPath id="62"><path d="M297.05 553.23L510.1 553.23L510.1 553.23L510.1 523.35L510.1 523.35L297.05 523.35z" /></clipPath><clipPath id="63"><path d="M297.05 553.23L510.1 553.23L510.1 553.23L510.1 523.35L510.1 523.35L297.05 523.35z" /></clipPath><clipPath id="64"><path d="M84.024 587.58L297.044 587.58L297.044 587.58L297.044 557.7L297.044 557.7L84.024 557.7z" /></clipPath><clipPath id="65"><path d="M84.024 587.58L297.044 587.58L297.044 587.58L297.044 557.7L297.044 557.7L84.024 557.7z" /></clipPath><clipPath id="66"><path d="M297.05 587.58L510.1 587.58L510.1 587.58L510.1 557.7L510.1 557.7L297.05 557.7z" /></clipPath><clipPath id="67"><path d="M297.05 587.58L510.1 587.58L510.1 587.58L510.1 557.7L510.1 557.7L297.05 557.7z" /></clipPath><clipPath id="68"><path d="M84.024 622.02L297.044 622.02L297.044 622.02L297.044 592.14L297.044 592.14L84.024 592.14z" /></clipPath><clipPath id="69"><path d="M84.024 622.02L297.044 622.02L297.044 622.02L297.044 592.14L297.044 592.14L84.024 592.14z" /></clipPath><clipPath id="70"><path d="M297.05 622.02L510.1 622.02L510.1 622.02L510.1 592.14L510.1 592.14L297.05 592.14z" /></clipPath><clipPath id="71"><path d="M297.05 622.02L510.1 622.02L510.1 622.02L510.1 592.14L510.1 592.14L297.05 592.14z" /></clipPath><clipPath id="72"><path d="M84.024 656.34L297.044 656.34L297.044 656.34L297.044 626.46L297.044 626.46L84.024 626.46z" /></clipPath><clipPath id="73"><path d="M84.024 656.34L297.044 656.34L297.044 656.34L297.044 626.46L297.044 626.46L84.024 626.46z" /></clipPath><clipPath id="74"><path d="M297.05 656.34L510.1 656.34L510.1 656.34L510.1 626.46L510.1 626.46L297.05 626.46z" /></clipPath><clipPath id="75"><path d="M297.05 656.34L510.1 656.34L510.1 656.34L510.1 626.46L510.1 626.46L297.05 626.46z" /></clipPath><clipPath id="76"><path d="M84.024 690.78L297.044 690.78L297.044 690.78L297.044 660.9L297.044 660.9L84.024 660.9z" /></clipPath><clipPath id="77"><path d="M84.024 690.78L297.044 690.78L297.044 690.78L297.044 660.9L297.044 660.9L84.024 660.9z" /></clipPath><clipPath id="78"><path d="M297.05 690.78L510.1 690.78L510.1 690.78L510.1 660.9L510.1 660.9L297.05 660.9z" /></clipPath><clipPath id="79"><path d="M297.05 690.78L510.1 690.78L510.1 690.78L510.1 660.9L510.1 660.9L297.05 660.9z" /></clipPath><clipPath id="80"><path d="M84.024 725.12L297.044 725.12L297.044 725.12L297.044 695.216L297.044 695.216L84.024 695.216z" /></clipPath><clipPath id="81"><path d="M84.024 725.12L297.044 725.12L297.044 725.12L297.044 695.216L297.044 695.216L84.024 695.216z" /></clipPath><clipPath id="82"><path d="M297.05 725.12L510.1 725.12L510.1 725.12L510.1 695.216L510.1 695.216L297.05 695.216z" /></clipPath><clipPath id="83"><path d="M297.05 725.12L510.1 725.12L510.1 725.12L510.1 695.216L510.1 695.216L297.05 695.216z" /></clipPath><clipPath id="84"><path d="M297.05 725.12L510.1 725.12L510.1 725.12L510.1 695.216L510.1 695.216L297.05 695.216z" /></clipPath><clipPath id="85"><path d="M297.05 725.12L510.1 725.12L510.1 725.12L510.1 695.216L510.1 695.216L297.05 695.216z" /></clipPath><clipPath id="86"><path d="M297.05 725.12L510.1 725.12L510.1 725.12L510.1 695.216L510.1 695.216L297.05 695.216z" /></clipPath><clipPath id="87"><path d="M84.024 759.56L297.044 759.56L297.044 759.56L297.044 729.68L297.044 729.68L84.024 729.68z" /></clipPath><clipPath id="88"><path d="M84.024 759.56L297.044 759.56L297.044 759.56L297.044 729.68L297.044 729.68L84.024 729.68z" /></clipPath><clipPath id="89"><path d="M297.05 759.56L510.1 759.56L510.1 759.56L510.1 729.68L510.1 729.68L297.05 729.68z" /></clipPath><clipPath id="90"><path d="M297.05 759.56L510.1 759.56L510.1 759.56L510.1 729.68L510.1 729.68L297.05 729.68z" /></clipPath><clipPath id="91"><path d="M290.85 814.991L304.35 814.991L304.35 814.991L304.35 806L304.35 806L290.85 806z" /></clipPath><clipPath id="92"><path d="M478.2 814.991L523.2 814.991L523.2 814.991L523.2 806L523.2 806L478.2 806z" /></clipPath><clipPath id="93"><path d="M229.7011 522.7861L399.4068 353.0804L399.4068 353.0804L365.4996 319.1732L365.4996 319.1732L195.7939 488.8789z" /></clipPath></defs><g transform="matrix(1.333333 0 0 1.333333 0 0)"><g><g clip-path="url(#1)"><g clip-path="url(#2)"></g><g clip-path="url(#3)"></g><g clip-path="url(#4)"></g><g clip-path="url(#5)"></g><g clip-path="url(#6)"></g><path transform="matrix(1 0 0 -1 0 842)" d="M83.904 766.9L84.024 766.9L84.024 766.9L84.024 770.044L84.024 770.044L83.904 770.044z" stroke="none" fill="#DEE0E3" fill-rule="evenodd" /><path transform="matrix(1 0 0 -1 0 842)" d="M83.904 769.92L84.024 769.92L84.024 769.92L84.024 770.04L84.024 770.04L83.904 770.04z" stroke="none" fill="#DEE0E3" fill-rule="evenodd" /><path transform="matrix(1 0 0 -1 0 842)" d="M84.024 769.92L296.924 769.92L296.924 769.92L296.924 770.04L296.924 770.04L84.024 770.04z" stroke="none" fill="#DEE0E3" fill-rule="evenodd" /><path transform="matrix(1 0 0 -1 0 842)" d="M296.93 766.9L297.05 766.9L297.05 766.9L297.05 769.924L297.05 769.924L296.93 769.924z" stroke="none" fill="#DEE0E3" fill-rule="evenodd" /><path transform="matrix(1 0 0 -1 0 842)" d="M296.93 769.92L297.05 769.92L297.05 769.92L297.05 770.04L297.05 770.04L296.93 770.04z" stroke="none" fill="#DEE0E3" fill-rule="evenodd" /><path transform="matrix(1 0 0 -1 0 842)" d="M297.05 769.92L509.98 769.92L509.98 769.92L509.98 770.04L509.98 770.04L297.05 770.04z" stroke="none" fill="#DEE0E3" fill-rule="evenodd" /><path transform="matrix(1 0 0 -1 0 842)" d="M509.98 766.9L510.1 766.9L510.1 766.9L510.1 770.044L510.1 770.044L509.98 770.044z" stroke="none" fill="#DEE0E3" fill-rule="evenodd" /><path transform="matrix(1 0 0 -1 0 842)" d="M509.98 769.92L510.1 769.92L510.1 769.92L510.1 770.04L510.1 770.04L509.98 770.04z" stroke="none" fill="#DEE0E3" fill-rule="evenodd" /><path transform="matrix(1 0 0 -1 0 842)" d="M83.904 735.7L84.024 735.7L84.024 735.7L84.024 766.9L84.024 766.9L83.904 766.9z" stroke="none" fill="#DEE0E3" fill-rule="evenodd" /><path transform="matrix(1 0 0 -1 0 842)" d="M296.93 735.7L297.05 735.7L297.05 735.7L297.05 766.9L297.05 766.9L296.93 766.9z" stroke="none" fill="#DEE0E3" fill-rule="evenodd" /><path transform="matrix(1 0 0 -1 0 842)" d="M509.98 735.7L510.1 735.7L510.1 735.7L510.1 766.9L510.1 766.9L509.98 766.9z" stroke="none" fill="#DEE0E3" fill-rule="evenodd" /><g clip-path="url(#7)"></g><g clip-path="url(#8)"></g><g clip-path="url(#9)"></g><g clip-path="url(#10)"></g><g clip-path="url(#11)"></g><path transform="matrix(1 0 0 -1 0 842)" d="M83.904 732.58L84.024 732.58L84.024 732.58L84.024 735.7L84.024 735.7L83.904 735.7z" stroke="none" fill="#DEE0E3" fill-rule="evenodd" /><path transform="matrix(1 0 0 -1 0 842)" d="M84.024 735.58L296.924 735.58L296.924 735.58L296.924 735.7L296.924 735.7L84.024 735.7z" stroke="none" fill="#DEE0E3" fill-rule="evenodd" /><path transform="matrix(1 0 0 -1 0 842)" d="M296.93 732.58L297.05 732.58L297.05 732.58L297.05 735.7L297.05 735.7L296.93 735.7z" stroke="none" fill="#DEE0E3" fill-rule="evenodd" /><path transform="matrix(1 0 0 -1 0 842)" d="M297.05 735.58L509.98 735.58L509.98 735.58L509.98 735.7L509.98 735.7L297.05 735.7z" stroke="none" fill="#DEE0E3" fill-rule="evenodd" /><path transform="matrix(1 0 0 -1 0 842)" d="M509.98 732.58L510.1 732.58L510.1 732.58L510.1 735.7L510.1 735.7L509.98 735.7z" stroke="none" fill="#DEE0E3" fill-rule="evenodd" /><path transform="matrix(1 0 0 -1 0 842)" d="M83.904 701.26L84.024 701.26L84.024 701.26L84.024 732.58L84.024 732.58L83.904 732.58z" stroke="none" fill="#DEE0E3" fill-rule="evenodd" /><path transform="matrix(1 0 0 -1 0 842)" d="M296.93 701.26L297.05 701.26L297.05 701.26L297.05 732.58L297.05 732.58L296.93 732.58z" stroke="none" fill="#DEE0E3" fill-rule="evenodd" /><path transform="matrix(1 0 0 -1 0 842)" d="M509.98 701.26L510.1 701.26L510.1 701.26L510.1 732.58L510.1 732.58L509.98 732.58z" stroke="none" fill="#DEE0E3" fill-rule="evenodd" /><g clip-path="url(#12)"></g><g clip-path="url(#13)"></g><g clip-path="url(#14)"></g><g clip-path="url(#15)"></g><path transform="matrix(1 0 0 -1 0 842)" d="M83.904 698.14L84.024 698.14L84.024 698.14L84.024 701.26L84.024 701.26L83.904 701.26z" stroke="none" fill="#DEE0E3" fill-rule="evenodd" /><path transform="matrix(1 0 0 -1 0 842)" d="M84.024 701.14L296.924 701.14L296.924 701.14L296.924 701.26L296.924 701.26L84.024 701.26z" stroke="none" fill="#DEE0E3" fill-rule="evenodd" /><path transform="matrix(1 0 0 -1 0 842)" d="M296.93 698.14L297.05 698.14L297.05 698.14L297.05 701.26L297.05 701.26L296.93 701.26z" stroke="none" fill="#DEE0E3" fill-rule="evenodd" /><path transform="matrix(1 0 0 -1 0 842)" d="M297.05 701.14L509.98 701.14L509.98 701.14L509.98 701.26L509.98 701.26L297.05 701.26z" stroke="none" fill="#DEE0E3" fill-rule="evenodd" /><path transform="matrix(1 0 0 -1 0 842)" d="M509.98 698.14L510.1 698.14L510.1 698.14L510.1 701.26L510.1 701.26L509.98 701.26z" stroke="none" fill="#DEE0E3" fill-rule="evenodd" /><path transform="matrix(1 0 0 -1 0 842)" d="M83.904 666.94L84.024 666.94L84.024 666.94L84.024 698.14L84.024 698.14L83.904 698.14z" stroke="none" fill="#DEE0E3" fill-rule="evenodd" /><path transform="matrix(1 0 0 -1 0 842)" d="M296.93 666.94L297.05 666.94L297.05 666.94L297.05 698.14L297.05 698.14L296.93 698.14z" stroke="none" fill="#DEE0E3" fill-rule="evenodd" /><path transform="matrix(1 0 0 -1 0 842)" d="M509.98 666.94L510.1 666.94L510.1 666.94L510.1 698.14L510.1 698.14L509.98 698.14z" stroke="none" fill="#DEE0E3" fill-rule="evenodd" /><g clip-path="url(#16)"></g><g clip-path="url(#17)"></g><g clip-path="url(#18)"></g><g clip-path="url(#19)"></g><path transform="matrix(1 0 0 -1 0 842)" d="M83.904 663.82L84.024 663.82L84.024 663.82L84.024 666.94L84.024 666.94L83.904 666.94z" stroke="none" fill="#DEE0E3" fill-rule="evenodd" /><path transform="matrix(1 0 0 -1 0 842)" d="M84.024 666.82L296.924 666.82L296.924 666.82L296.924 666.94L296.924 666.94L84.024 666.94z" stroke="none" fill="#DEE0E3" fill-rule="evenodd" /><path transform="matrix(1 0 0 -1 0 842)" d="M296.93 663.82L297.05 663.82L297.05 663.82L297.05 666.94L297.05 666.94L296.93 666.94z" stroke="none" fill="#DEE0E3" fill-rule="evenodd" /><path transform="matrix(1 0 0 -1 0 842)" d="M297.05 666.82L509.98 666.82L509.98 666.82L509.98 666.94L509.98 666.94L297.05 666.94z" stroke="none" fill="#DEE0E3" fill-rule="evenodd" /><path transform="matrix(1 0 0 -1 0 842)" d="M509.98 663.82L510.1 663.82L510.1 663.82L510.1 666.94L510.1 666.94L509.98 666.94z" stroke="none" fill="#DEE0E3" fill-rule="evenodd" /><path transform="matrix(1 0 0 -1 0 842)" d="M83.904 632.5L84.024 632.5L84.024 632.5L84.024 663.82L84.024 663.82L83.904 663.82z" stroke="none" fill="#DEE0E3" fill-rule="evenodd" /><path transform="matrix(1 0 0 -1 0 842)" d="M296.93 632.5L297.05 632.5L297.05 632.5L297.05 663.82L297.05 663.82L296.93 663.82z" stroke="none" fill="#DEE0E3" fill-rule="evenodd" /><path transform="matrix(1 0 0 -1 0 842)" d="M509.98 632.5L510.1 632.5L510.1 632.5L510.1 663.82L510.1 663.82L509.98 663.82z" stroke="none" fill="#DEE0E3" fill-rule="evenodd" /><g clip-path="url(#20)"></g><g clip-path="url(#21)"></g><g clip-path="url(#22)"></g><g clip-path="url(#23)"></g><path transform="matrix(1 0 0 -1 0 842)" d="M83.904 629.38L84.024 629.38L84.024 629.38L84.024 632.5L84.024 632.5L83.904 632.5z" stroke="none" fill="#DEE0E3" fill-rule="evenodd" /><path transform="matrix(1 0 0 -1 0 842)" d="M84.024 632.38L296.924 632.38L296.924 632.38L296.924 632.5L296.924 632.5L84.024 632.5z" stroke="none" fill="#DEE0E3" fill-rule="evenodd" /><path transform="matrix(1 0 0 -1 0 842)" d="M296.93 629.38L297.05 629.38L297.05 629.38L297.05 632.5L297.05 632.5L296.93 632.5z" stroke="none" fill="#DEE0E3" fill-rule="evenodd" /><path transform="matrix(1 0 0 -1 0 842)" d="M297.05 632.38L509.98 632.38L509.98 632.38L509.98 632.5L509.98 632.5L297.05 632.5z" stroke="none" fill="#DEE0E3" fill-rule="evenodd" /><path transform="matrix(1 0 0 -1 0 842)" d="M509.98 629.38L510.1 629.38L510.1 629.38L510.1 632.5L510.1 632.5L509.98 632.5z" stroke="none" fill="#DEE0E3" fill-rule="evenodd" /><path transform="matrix(1 0 0 -1 0 842)" d="M83.904 598.15L84.024 598.15L84.024 598.15L84.024 629.374L84.024 629.374L83.904 629.374z" stroke="none" fill="#DEE0E3" fill-rule="evenodd" /><path transform="matrix(1 0 0 -1 0 842)" d="M296.93 598.15L297.05 598.15L297.05 598.15L297.05 629.374L297.05 629.374L296.93 629.374z" stroke="none" fill="#DEE0E3" fill-rule="evenodd" /><path transform="matrix(1 0 0 -1 0 842)" d="M509.98 598.15L510.1 598.15L510.1 598.15L510.1 629.374L510.1 629.374L509.98 629.374z" stroke="none" fill="#DEE0E3" fill-rule="evenodd" /><g clip-path="url(#24)"></g><g clip-path="url(#25)"></g><g clip-path="url(#26)"></g><g clip-path="url(#27)"></g><g clip-path="url(#28)"></g><g clip-path="url(#29)"></g><g clip-path="url(#30)"></g><g clip-path="url(#31)"></g><g clip-path="url(#32)"></g><g clip-path="url(#33)"></g><g clip-path="url(#34)"></g><path transform="matrix(1 0 0 -1 0 842)" d="M83.904 595.03L84.024 595.03L84.024 595.03L84.024 598.15L84.024 598.15L83.904 598.15z" stroke="none" fill="#DEE0E3" fill-rule="evenodd" /><path transform="matrix(1 0 0 -1 0 842)" d="M84.024 598.03L296.924 598.03L296.924 598.03L296.924 598.15L296.924 598.15L84.024 598.15z" stroke="none" fill="#DEE0E3" fill-rule="evenodd" /><path transform="matrix(1 0 0 -1 0 842)" d="M296.93 595.03L297.05 595.03L297.05 595.03L297.05 598.15L297.05 598.15L296.93 598.15z" stroke="none" fill="#DEE0E3" fill-rule="evenodd" /><path transform="matrix(1 0 0 -1 0 842)" d="M297.05 598.03L509.98 598.03L509.98 598.03L509.98 598.15L509.98 598.15L297.05 598.15z" stroke="none" fill="#DEE0E3" fill-rule="evenodd" /><path transform="matrix(1 0 0 -1 0 842)" d="M509.98 595.03L510.1 595.03L510.1 595.03L510.1 598.15L510.1 598.15L509.98 598.15z" stroke="none" fill="#DEE0E3" fill-rule="evenodd" /><path transform="matrix(1 0 0 -1 0 842)" d="M83.904 545.83L84.024 545.83L84.024 545.83L84.024 595.03L84.024 595.03L83.904 595.03z" stroke="none" fill="#DEE0E3" fill-rule="evenodd" /><path transform="matrix(1 0 0 -1 0 842)" d="M296.93 545.83L297.05 545.83L297.05 545.83L297.05 595.03L297.05 595.03L296.93 595.03z" stroke="none" fill="#DEE0E3" fill-rule="evenodd" /><path transform="matrix(1 0 0 -1 0 842)" d="M509.98 545.83L510.1 545.83L510.1 545.83L510.1 595.03L510.1 595.03L509.98 595.03z" stroke="none" fill="#DEE0E3" fill-rule="evenodd" /><g clip-path="url(#35)"></g><g clip-path="url(#36)"></g><g clip-path="url(#37)"></g><g clip-path="url(#38)"></g><g clip-path="url(#39)"></g><path transform="matrix(1 0 0 -1 0 842)" d="M83.904 542.71L84.024 542.71L84.024 542.71L84.024 545.83L84.024 545.83L83.904 545.83z" stroke="none" fill="#DEE0E3" fill-rule="evenodd" /><path transform="matrix(1 0 0 -1 0 842)" d="M84.024 545.71L296.924 545.71L296.924 545.71L296.924 545.83L296.924 545.83L84.024 545.83z" stroke="none" fill="#DEE0E3" fill-rule="evenodd" /><path transform="matrix(1 0 0 -1 0 842)" d="M296.93 542.71L297.05 542.71L297.05 542.71L297.05 545.83L297.05 545.83L296.93 545.83z" stroke="none" fill="#DEE0E3" fill-rule="evenodd" /><path transform="matrix(1 0 0 -1 0 842)" d="M297.05 545.71L509.98 545.71L509.98 545.71L509.98 545.83L509.98 545.83L297.05 545.83z" stroke="none" fill="#DEE0E3" fill-rule="evenodd" /><path transform="matrix(1 0 0 -1 0 842)" d="M509.98 542.71L510.1 542.71L510.1 542.71L510.1 545.83L510.1 545.83L509.98 545.83z" stroke="none" fill="#DEE0E3" fill-rule="evenodd" /><path transform="matrix(1 0 0 -1 0 842)" d="M83.904 493.63L84.024 493.63L84.024 493.63L84.024 542.71L84.024 542.71L83.904 542.71z" stroke="none" fill="#DEE0E3" fill-rule="evenodd" /><path transform="matrix(1 0 0 -1 0 842)" d="M296.93 493.63L297.05 493.63L297.05 493.63L297.05 542.71L297.05 542.71L296.93 542.71z" stroke="none" fill="#DEE0E3" fill-rule="evenodd" /><path transform="matrix(1 0 0 -1 0 842)" d="M509.98 493.63L510.1 493.63L510.1 493.63L510.1 542.71L510.1 542.71L509.98 542.71z" stroke="none" fill="#DEE0E3" fill-rule="evenodd" /><g clip-path="url(#40)"></g><g clip-path="url(#41)"></g><g clip-path="url(#42)"></g><g clip-path="url(#43)"></g><path transform="matrix(1 0 0 -1 0 842)" d="M83.904 490.51L84.024 490.51L84.024 490.51L84.024 493.63L84.024 493.63L83.904 493.63z" stroke="none" fill="#DEE0E3" fill-rule="evenodd" /><path transform="matrix(1 0 0 -1 0 842)" d="M84.024 493.51L296.924 493.51L296.924 493.51L296.924 493.63L296.924 493.63L84.024 493.63z" stroke="none" fill="#DEE0E3" fill-rule="evenodd" /><path transform="matrix(1 0 0 -1 0 842)" d="M296.93 490.51L297.05 490.51L297.05 490.51L297.05 493.63L297.05 493.63L296.93 493.63z" stroke="none" fill="#DEE0E3" fill-rule="evenodd" /><path transform="matrix(1 0 0 -1 0 842)" d="M297.05 493.51L509.98 493.51L509.98 493.51L509.98 493.63L509.98 493.63L297.05 493.63z" stroke="none" fill="#DEE0E3" fill-rule="evenodd" /><path transform="matrix(1 0 0 -1 0 842)" d="M509.98 490.51L510.1 490.51L510.1 490.51L510.1 493.63L510.1 493.63L509.98 493.63z" stroke="none" fill="#DEE0E3" fill-rule="evenodd" /><path transform="matrix(1 0 0 -1 0 842)" d="M83.904 459.19L84.024 459.19L84.024 459.19L84.024 490.51L84.024 490.51L83.904 490.51z" stroke="none" fill="#DEE0E3" fill-rule="evenodd" /><path transform="matrix(1 0 0 -1 0 842)" d="M296.93 459.19L297.05 459.19L297.05 459.19L297.05 490.51L297.05 490.51L296.93 490.51z" stroke="none" fill="#DEE0E3" fill-rule="evenodd" /><path transform="matrix(1 0 0 -1 0 842)" d="M509.98 459.19L510.1 459.19L510.1 459.19L510.1 490.51L510.1 490.51L509.98 490.51z" stroke="none" fill="#DEE0E3" fill-rule="evenodd" /><g clip-path="url(#44)"></g><g clip-path="url(#45)"></g><g clip-path="url(#46)"></g><g clip-path="url(#47)"></g><path transform="matrix(1 0 0 -1 0 842)" d="M83.904 456.07L84.024 456.07L84.024 456.07L84.024 459.19L84.024 459.19L83.904 459.19z" stroke="none" fill="#DEE0E3" fill-rule="evenodd" /><path transform="matrix(1 0 0 -1 0 842)" d="M84.024 459.07L296.924 459.07L296.924 459.07L296.924 459.19L296.924 459.19L84.024 459.19z" stroke="none" fill="#DEE0E3" fill-rule="evenodd" /><path transform="matrix(1 0 0 -1 0 842)" d="M296.93 456.07L297.05 456.07L297.05 456.07L297.05 459.19L297.05 459.19L296.93 459.19z" stroke="none" fill="#DEE0E3" fill-rule="evenodd" /><path transform="matrix(1 0 0 -1 0 842)" d="M297.05 459.07L509.98 459.07L509.98 459.07L509.98 459.19L509.98 459.19L297.05 459.19z" stroke="none" fill="#DEE0E3" fill-rule="evenodd" /><path transform="matrix(1 0 0 -1 0 842)" d="M509.98 456.07L510.1 456.07L510.1 456.07L510.1 459.19L510.1 459.19L509.98 459.19z" stroke="none" fill="#DEE0E3" fill-rule="evenodd" /><path transform="matrix(1 0 0 -1 0 842)" d="M83.904 424.85L84.024 424.85L84.024 424.85L84.024 456.074L84.024 456.074L83.904 456.074z" stroke="none" fill="#DEE0E3" fill-rule="evenodd" /><path transform="matrix(1 0 0 -1 0 842)" d="M296.93 424.85L297.05 424.85L297.05 424.85L297.05 456.074L297.05 456.074L296.93 456.074z" stroke="none" fill="#DEE0E3" fill-rule="evenodd" /><path transform="matrix(1 0 0 -1 0 842)" d="M509.98 424.85L510.1 424.85L510.1 424.85L510.1 456.074L510.1 456.074L509.98 456.074z" stroke="none" fill="#DEE0E3" fill-rule="evenodd" /><g clip-path="url(#48)"></g><g clip-path="url(#49)"></g><g clip-path="url(#50)"></g><g clip-path="url(#51)"></g><path transform="matrix(1 0 0 -1 0 842)" d="M83.904 421.73L84.024 421.73L84.024 421.73L84.024 424.85L84.024 424.85L83.904 424.85z" stroke="none" fill="#DEE0E3" fill-rule="evenodd" /><path transform="matrix(1 0 0 -1 0 842)" d="M84.024 424.73L296.924 424.73L296.924 424.73L296.924 424.85L296.924 424.85L84.024 424.85z" stroke="none" fill="#DEE0E3" fill-rule="evenodd" /><path transform="matrix(1 0 0 -1 0 842)" d="M296.93 421.73L297.05 421.73L297.05 421.73L297.05 424.85L297.05 424.85L296.93 424.85z" stroke="none" fill="#DEE0E3" fill-rule="evenodd" /><path transform="matrix(1 0 0 -1 0 842)" d="M297.05 424.73L509.98 424.73L509.98 424.73L509.98 424.85L509.98 424.85L297.05 424.85z" stroke="none" fill="#DEE0E3" fill-rule="evenodd" /><path transform="matrix(1 0 0 -1 0 842)" d="M509.98 421.73L510.1 421.73L510.1 421.73L510.1 424.85L510.1 424.85L509.98 424.85z" stroke="none" fill="#DEE0E3" fill-rule="evenodd" /><path transform="matrix(1 0 0 -1 0 842)" d="M83.904 390.41L84.024 390.41L84.024 390.41L84.024 421.73L84.024 421.73L83.904 421.73z" stroke="none" fill="#DEE0E3" fill-rule="evenodd" /><path transform="matrix(1 0 0 -1 0 842)" d="M296.93 390.41L297.05 390.41L297.05 390.41L297.05 421.73L297.05 421.73L296.93 421.73z" stroke="none" fill="#DEE0E3" fill-rule="evenodd" /><path transform="matrix(1 0 0 -1 0 842)" d="M509.98 390.41L510.1 390.41L510.1 390.41L510.1 421.73L510.1 421.73L509.98 421.73z" stroke="none" fill="#DEE0E3" fill-rule="evenodd" /><g clip-path="url(#52)"></g><g clip-path="url(#53)"></g><g clip-path="url(#54)"></g><g clip-path="url(#55)"></g><path transform="matrix(1 0 0 -1 0 842)" d="M83.904 387.29L84.024 387.29L84.024 387.29L84.024 390.41L84.024 390.41L83.904 390.41z" stroke="none" fill="#DEE0E3" fill-rule="evenodd" /><path transform="matrix(1 0 0 -1 0 842)" d="M84.024 390.29L296.924 390.29L296.924 390.29L296.924 390.41L296.924 390.41L84.024 390.41z" stroke="none" fill="#DEE0E3" fill-rule="evenodd" /><path transform="matrix(1 0 0 -1 0 842)" d="M296.93 387.29L297.05 387.29L297.05 387.29L297.05 390.41L297.05 390.41L296.93 390.41z" stroke="none" fill="#DEE0E3" fill-rule="evenodd" /><path transform="matrix(1 0 0 -1 0 842)" d="M297.05 390.29L509.98 390.29L509.98 390.29L509.98 390.41L509.98 390.41L297.05 390.41z" stroke="none" fill="#DEE0E3" fill-rule="evenodd" /><path transform="matrix(1 0 0 -1 0 842)" d="M509.98 387.29L510.1 387.29L510.1 387.29L510.1 390.41L510.1 390.41L509.98 390.41z" stroke="none" fill="#DEE0E3" fill-rule="evenodd" /><path transform="matrix(1 0 0 -1 0 842)" d="M83.904 356.09L84.024 356.09L84.024 356.09L84.024 387.29L84.024 387.29L83.904 387.29z" stroke="none" fill="#DEE0E3" fill-rule="evenodd" /><path transform="matrix(1 0 0 -1 0 842)" d="M296.93 356.09L297.05 356.09L297.05 356.09L297.05 387.29L297.05 387.29L296.93 387.29z" stroke="none" fill="#DEE0E3" fill-rule="evenodd" /><path transform="matrix(1 0 0 -1 0 842)" d="M509.98 356.09L510.1 356.09L510.1 356.09L510.1 387.29L510.1 387.29L509.98 387.29z" stroke="none" fill="#DEE0E3" fill-rule="evenodd" /><g clip-path="url(#56)"></g><g clip-path="url(#57)"></g><g clip-path="url(#58)"></g><g clip-path="url(#59)"></g><path transform="matrix(1 0 0 -1 0 842)" d="M83.904 352.97L84.024 352.97L84.024 352.97L84.024 356.09L84.024 356.09L83.904 356.09z" stroke="none" fill="#DEE0E3" fill-rule="evenodd" /><path transform="matrix(1 0 0 -1 0 842)" d="M84.024 355.97L296.924 355.97L296.924 355.97L296.924 356.09L296.924 356.09L84.024 356.09z" stroke="none" fill="#DEE0E3" fill-rule="evenodd" /><path transform="matrix(1 0 0 -1 0 842)" d="M296.93 352.97L297.05 352.97L297.05 352.97L297.05 356.09L297.05 356.09L296.93 356.09z" stroke="none" fill="#DEE0E3" fill-rule="evenodd" /><path transform="matrix(1 0 0 -1 0 842)" d="M297.05 355.97L509.98 355.97L509.98 355.97L509.98 356.09L509.98 356.09L297.05 356.09z" stroke="none" fill="#DEE0E3" fill-rule="evenodd" /><path transform="matrix(1 0 0 -1 0 842)" d="M509.98 352.97L510.1 352.97L510.1 352.97L510.1 356.09L510.1 356.09L509.98 356.09z" stroke="none" fill="#DEE0E3" fill-rule="evenodd" /><path transform="matrix(1 0 0 -1 0 842)" d="M83.904 321.65L84.024 321.65L84.024 321.65L84.024 352.97L84.024 352.97L83.904 352.97z" stroke="none" fill="#DEE0E3" fill-rule="evenodd" /><path transform="matrix(1 0 0 -1 0 842)" d="M296.93 321.65L297.05 321.65L297.05 321.65L297.05 352.97L297.05 352.97L296.93 352.97z" stroke="none" fill="#DEE0E3" fill-rule="evenodd" /><path transform="matrix(1 0 0 -1 0 842)" d="M509.98 321.65L510.1 321.65L510.1 321.65L510.1 352.97L510.1 352.97L509.98 352.97z" stroke="none" fill="#DEE0E3" fill-rule="evenodd" /><g clip-path="url(#60)"></g><g clip-path="url(#61)"></g><g clip-path="url(#62)"></g><g clip-path="url(#63)"></g><path transform="matrix(1 0 0 -1 0 842)" d="M83.904 318.53L84.024 318.53L84.024 318.53L84.024 321.65L84.024 321.65L83.904 321.65z" stroke="none" fill="#DEE0E3" fill-rule="evenodd" /><path transform="matrix(1 0 0 -1 0 842)" d="M84.024 321.53L296.924 321.53L296.924 321.53L296.924 321.65L296.924 321.65L84.024 321.65z" stroke="none" fill="#DEE0E3" fill-rule="evenodd" /><path transform="matrix(1 0 0 -1 0 842)" d="M296.93 318.53L297.05 318.53L297.05 318.53L297.05 321.65L297.05 321.65L296.93 321.65z" stroke="none" fill="#DEE0E3" fill-rule="evenodd" /><path transform="matrix(1 0 0 -1 0 842)" d="M297.05 321.53L509.98 321.53L509.98 321.53L509.98 321.65L509.98 321.65L297.05 321.65z" stroke="none" fill="#DEE0E3" fill-rule="evenodd" /><path transform="matrix(1 0 0 -1 0 842)" d="M509.98 318.53L510.1 318.53L510.1 318.53L510.1 321.65L510.1 321.65L509.98 321.65z" stroke="none" fill="#DEE0E3" fill-rule="evenodd" /><path transform="matrix(1 0 0 -1 0 842)" d="M83.904 287.3L84.024 287.3L84.024 287.3L84.024 318.524L84.024 318.524L83.904 318.524z" stroke="none" fill="#DEE0E3" fill-rule="evenodd" /><path transform="matrix(1 0 0 -1 0 842)" d="M296.93 287.3L297.05 287.3L297.05 287.3L297.05 318.524L297.05 318.524L296.93 318.524z" stroke="none" fill="#DEE0E3" fill-rule="evenodd" /><path transform="matrix(1 0 0 -1 0 842)" d="M509.98 287.3L510.1 287.3L510.1 287.3L510.1 318.524L510.1 318.524L509.98 318.524z" stroke="none" fill="#DEE0E3" fill-rule="evenodd" /><g clip-path="url(#64)"></g><g clip-path="url(#65)"></g><g clip-path="url(#66)"></g><g clip-path="url(#67)"></g><path transform="matrix(1 0 0 -1 0 842)" d="M83.904 284.18L84.024 284.18L84.024 284.18L84.024 287.3L84.024 287.3L83.904 287.3z" stroke="none" fill="#DEE0E3" fill-rule="evenodd" /><path transform="matrix(1 0 0 -1 0 842)" d="M84.024 287.18L296.924 287.18L296.924 287.18L296.924 287.3L296.924 287.3L84.024 287.3z" stroke="none" fill="#DEE0E3" fill-rule="evenodd" /><path transform="matrix(1 0 0 -1 0 842)" d="M296.93 284.18L297.05 284.18L297.05 284.18L297.05 287.3L297.05 287.3L296.93 287.3z" stroke="none" fill="#DEE0E3" fill-rule="evenodd" /><path transform="matrix(1 0 0 -1 0 842)" d="M297.05 287.18L509.98 287.18L509.98 287.18L509.98 287.3L509.98 287.3L297.05 287.3z" stroke="none" fill="#DEE0E3" fill-rule="evenodd" /><path transform="matrix(1 0 0 -1 0 842)" d="M509.98 284.18L510.1 284.18L510.1 284.18L510.1 287.3L510.1 287.3L509.98 287.3z" stroke="none" fill="#DEE0E3" fill-rule="evenodd" /><path transform="matrix(1 0 0 -1 0 842)" d="M83.904 252.86L84.024 252.86L84.024 252.86L84.024 284.18L84.024 284.18L83.904 284.18z" stroke="none" fill="#DEE0E3" fill-rule="evenodd" /><path transform="matrix(1 0 0 -1 0 842)" d="M296.93 252.86L297.05 252.86L297.05 252.86L297.05 284.18L297.05 284.18L296.93 284.18z" stroke="none" fill="#DEE0E3" fill-rule="evenodd" /><path transform="matrix(1 0 0 -1 0 842)" d="M509.98 252.86L510.1 252.86L510.1 252.86L510.1 284.18L510.1 284.18L509.98 284.18z" stroke="none" fill="#DEE0E3" fill-rule="evenodd" /><g clip-path="url(#68)"></g><g clip-path="url(#69)"></g><g clip-path="url(#70)"></g><g clip-path="url(#71)"></g><path transform="matrix(1 0 0 -1 0 842)" d="M83.904 249.74L84.024 249.74L84.024 249.74L84.024 252.86L84.024 252.86L83.904 252.86z" stroke="none" fill="#DEE0E3" fill-rule="evenodd" /><path transform="matrix(1 0 0 -1 0 842)" d="M84.024 252.74L296.924 252.74L296.924 252.74L296.924 252.86L296.924 252.86L84.024 252.86z" stroke="none" fill="#DEE0E3" fill-rule="evenodd" /><path transform="matrix(1 0 0 -1 0 842)" d="M296.93 249.74L297.05 249.74L297.05 249.74L297.05 252.86L297.05 252.86L296.93 252.86z" stroke="none" fill="#DEE0E3" fill-rule="evenodd" /><path transform="matrix(1 0 0 -1 0 842)" d="M297.05 252.74L509.98 252.74L509.98 252.74L509.98 252.86L509.98 252.86L297.05 252.86z" stroke="none" fill="#DEE0E3" fill-rule="evenodd" /><path transform="matrix(1 0 0 -1 0 842)" d="M509.98 249.74L510.1 249.74L510.1 249.74L510.1 252.86L510.1 252.86L509.98 252.86z" stroke="none" fill="#DEE0E3" fill-rule="evenodd" /><path transform="matrix(1 0 0 -1 0 842)" d="M83.904 218.54L84.024 218.54L84.024 218.54L84.024 249.74L84.024 249.74L83.904 249.74z" stroke="none" fill="#DEE0E3" fill-rule="evenodd" /><path transform="matrix(1 0 0 -1 0 842)" d="M296.93 218.54L297.05 218.54L297.05 218.54L297.05 249.74L297.05 249.74L296.93 249.74z" stroke="none" fill="#DEE0E3" fill-rule="evenodd" /><path transform="matrix(1 0 0 -1 0 842)" d="M509.98 218.54L510.1 218.54L510.1 218.54L510.1 249.74L510.1 249.74L509.98 249.74z" stroke="none" fill="#DEE0E3" fill-rule="evenodd" /><g clip-path="url(#72)"></g><g clip-path="url(#73)"></g><g clip-path="url(#74)"></g><g clip-path="url(#75)"></g><path transform="matrix(1 0 0 -1 0 842)" d="M83.904 215.42L84.024 215.42L84.024 215.42L84.024 218.54L84.024 218.54L83.904 218.54z" stroke="none" fill="#DEE0E3" fill-rule="evenodd" /><path transform="matrix(1 0 0 -1 0 842)" d="M84.024 218.42L296.924 218.42L296.924 218.42L296.924 218.54L296.924 218.54L84.024 218.54z" stroke="none" fill="#DEE0E3" fill-rule="evenodd" /><path transform="matrix(1 0 0 -1 0 842)" d="M296.93 215.42L297.05 215.42L297.05 215.42L297.05 218.54L297.05 218.54L296.93 218.54z" stroke="none" fill="#DEE0E3" fill-rule="evenodd" /><path transform="matrix(1 0 0 -1 0 842)" d="M297.05 218.42L509.98 218.42L509.98 218.42L509.98 218.54L509.98 218.54L297.05 218.54z" stroke="none" fill="#DEE0E3" fill-rule="evenodd" /><path transform="matrix(1 0 0 -1 0 842)" d="M509.98 215.42L510.1 215.42L510.1 215.42L510.1 218.54L510.1 218.54L509.98 218.54z" stroke="none" fill="#DEE0E3" fill-rule="evenodd" /><path transform="matrix(1 0 0 -1 0 842)" d="M83.904 184.1L84.024 184.1L84.024 184.1L84.024 215.42L84.024 215.42L83.904 215.42z" stroke="none" fill="#DEE0E3" fill-rule="evenodd" /><path transform="matrix(1 0 0 -1 0 842)" d="M296.93 184.1L297.05 184.1L297.05 184.1L297.05 215.42L297.05 215.42L296.93 215.42z" stroke="none" fill="#DEE0E3" fill-rule="evenodd" /><path transform="matrix(1 0 0 -1 0 842)" d="M509.98 184.1L510.1 184.1L510.1 184.1L510.1 215.42L510.1 215.42L509.98 215.42z" stroke="none" fill="#DEE0E3" fill-rule="evenodd" /><g clip-path="url(#76)"></g><g clip-path="url(#77)"></g><g clip-path="url(#78)"></g><g clip-path="url(#79)"></g><path transform="matrix(1 0 0 -1 0 842)" d="M83.904 180.98L84.024 180.98L84.024 180.98L84.024 184.1L84.024 184.1L83.904 184.1z" stroke="none" fill="#DEE0E3" fill-rule="evenodd" /><path transform="matrix(1 0 0 -1 0 842)" d="M84.024 183.98L296.924 183.98L296.924 183.98L296.924 184.1L296.924 184.1L84.024 184.1z" stroke="none" fill="#DEE0E3" fill-rule="evenodd" /><path transform="matrix(1 0 0 -1 0 842)" d="M296.93 180.98L297.05 180.98L297.05 180.98L297.05 184.1L297.05 184.1L296.93 184.1z" stroke="none" fill="#DEE0E3" fill-rule="evenodd" /><path transform="matrix(1 0 0 -1 0 842)" d="M297.05 183.98L509.98 183.98L509.98 183.98L509.98 184.1L509.98 184.1L297.05 184.1z" stroke="none" fill="#DEE0E3" fill-rule="evenodd" /><path transform="matrix(1 0 0 -1 0 842)" d="M509.98 180.98L510.1 180.98L510.1 180.98L510.1 184.1L510.1 184.1L509.98 184.1z" stroke="none" fill="#DEE0E3" fill-rule="evenodd" /><path transform="matrix(1 0 0 -1 0 842)" d="M83.904 149.78L84.024 149.78L84.024 149.78L84.024 180.98L84.024 180.98L83.904 180.98z" stroke="none" fill="#DEE0E3" fill-rule="evenodd" /><path transform="matrix(1 0 0 -1 0 842)" d="M296.93 149.78L297.05 149.78L297.05 149.78L297.05 180.98L297.05 180.98L296.93 180.98z" stroke="none" fill="#DEE0E3" fill-rule="evenodd" /><path transform="matrix(1 0 0 -1 0 842)" d="M509.98 149.78L510.1 149.78L510.1 149.78L510.1 180.98L510.1 180.98L509.98 180.98z" stroke="none" fill="#DEE0E3" fill-rule="evenodd" /><g clip-path="url(#80)"></g><g clip-path="url(#81)"></g><g clip-path="url(#82)"></g><g clip-path="url(#83)"></g><g clip-path="url(#84)"></g><g clip-path="url(#85)"></g><g clip-path="url(#86)"></g><path transform="matrix(1 0 0 -1 0 842)" d="M83.904 146.66L84.024 146.66L84.024 146.66L84.024 149.78L84.024 149.78L83.904 149.78z" stroke="none" fill="#DEE0E3" fill-rule="evenodd" /><path transform="matrix(1 0 0 -1 0 842)" d="M84.024 149.66L296.924 149.66L296.924 149.66L296.924 149.78L296.924 149.78L84.024 149.78z" stroke="none" fill="#DEE0E3" fill-rule="evenodd" /><path transform="matrix(1 0 0 -1 0 842)" d="M296.93 146.66L297.05 146.66L297.05 146.66L297.05 149.78L297.05 149.78L296.93 149.78z" stroke="none" fill="#DEE0E3" fill-rule="evenodd" /><path transform="matrix(1 0 0 -1 0 842)" d="M297.05 149.66L509.98 149.66L509.98 149.66L509.98 149.78L509.98 149.78L297.05 149.78z" stroke="none" fill="#DEE0E3" fill-rule="evenodd" /><path transform="matrix(1 0 0 -1 0 842)" d="M509.98 146.66L510.1 146.66L510.1 146.66L510.1 149.78L510.1 149.78L509.98 149.78z" stroke="none" fill="#DEE0E3" fill-rule="evenodd" /><path transform="matrix(1 0 0 -1 0 842)" d="M83.904 115.32L84.024 115.32L84.024 115.32L84.024 146.664L84.024 146.664L83.904 146.664z" stroke="none" fill="#DEE0E3" fill-rule="evenodd" /><path transform="matrix(1 0 0 -1 0 842)" d="M296.93 115.32L297.05 115.32L297.05 115.32L297.05 146.664L297.05 146.664L296.93 146.664z" stroke="none" fill="#DEE0E3" fill-rule="evenodd" /><path transform="matrix(1 0 0 -1 0 842)" d="M509.98 115.32L510.1 115.32L510.1 115.32L510.1 146.664L510.1 146.664L509.98 146.664z" stroke="none" fill="#DEE0E3" fill-rule="evenodd" /><g clip-path="url(#87)"></g><g clip-path="url(#88)"></g><g clip-path="url(#89)"></g><g clip-path="url(#90)"></g><path transform="matrix(1 0 0 -1 0 842)" d="M83.904 112.2L84.024 112.2L84.024 112.2L84.024 115.32L84.024 115.32L83.904 115.32z" stroke="none" fill="#DEE0E3" fill-rule="evenodd" /><path transform="matrix(1 0 0 -1 0 842)" d="M84.024 115.2L296.924 115.2L296.924 115.2L296.924 115.32L296.924 115.32L84.024 115.32z" stroke="none" fill="#DEE0E3" fill-rule="evenodd" /><path transform="matrix(1 0 0 -1 0 842)" d="M296.93 112.2L297.05 112.2L297.05 112.2L297.05 115.32L297.05 115.32L296.93 115.32z" stroke="none" fill="#DEE0E3" fill-rule="evenodd" /><path transform="matrix(1 0 0 -1 0 842)" d="M297.05 115.2L509.98 115.2L509.98 115.2L509.98 115.32L509.98 115.32L297.05 115.32z" stroke="none" fill="#DEE0E3" fill-rule="evenodd" /><path transform="matrix(1 0 0 -1 0 842)" d="M509.98 112.2L510.1 112.2L510.1 112.2L510.1 115.32L510.1 115.32L509.98 115.32z" stroke="none" fill="#DEE0E3" fill-rule="evenodd" /><path transform="matrix(1 0 0 -1 0 842)" d="M83.904 81.12L84.024 81.12L84.024 81.12L84.024 112.2L84.024 112.2L83.904 112.2z" stroke="none" fill="#DEE0E3" fill-rule="evenodd" /><path transform="matrix(1 0 0 -1 0 842)" d="M83.904 81L84.024 81L84.024 81L84.024 81.12L84.024 81.12L83.904 81.12z" stroke="none" fill="#DEE0E3" fill-rule="evenodd" /><path transform="matrix(1 0 0 -1 0 842)" d="M83.904 81L84.024 81L84.024 81L84.024 81.12L84.024 81.12L83.904 81.12z" stroke="none" fill="#DEE0E3" fill-rule="evenodd" /><path transform="matrix(1 0 0 -1 0 842)" d="M84.024 81L296.924 81L296.924 81L296.924 81.12L296.924 81.12L84.024 81.12z" stroke="none" fill="#DEE0E3" fill-rule="evenodd" /><path transform="matrix(1 0 0 -1 0 842)" d="M296.93 81.12L297.05 81.12L297.05 81.12L297.05 112.2L297.05 112.2L296.93 112.2z" stroke="none" fill="#DEE0E3" fill-rule="evenodd" /><path transform="matrix(1 0 0 -1 0 842)" d="M296.93 81L297.05 81L297.05 81L297.05 81.12L297.05 81.12L296.93 81.12z" stroke="none" fill="#DEE0E3" fill-rule="evenodd" /><path transform="matrix(1 0 0 -1 0 842)" d="M297.05 81L509.98 81L509.98 81L509.98 81.12L509.98 81.12L297.05 81.12z" stroke="none" fill="#DEE0E3" fill-rule="evenodd" /><path transform="matrix(1 0 0 -1 0 842)" d="M509.98 81.12L510.1 81.12L510.1 81.12L510.1 112.2L510.1 112.2L509.98 112.2z" stroke="none" fill="#DEE0E3" fill-rule="evenodd" /><path transform="matrix(1 0 0 -1 0 842)" d="M509.98 81L510.1 81L510.1 81L510.1 81.12L510.1 81.12L509.98 81.12z" stroke="none" fill="#DEE0E3" fill-rule="evenodd" /><path transform="matrix(1 0 0 -1 0 842)" d="M509.98 81L510.1 81L510.1 81L510.1 81.12L510.1 81.12L509.98 81.12z" stroke="none" fill="#DEE0E3" fill-rule="evenodd" /><g><g clip-path="url(#91)"></g></g><g><g clip-path="url(#92)"></g></g><g><g clip-path="url(#93)"><path transform="matrix(1 0 0 -1 0 842)" d="M224.5516 347.1676C 224.2865 347.4327 224.1539 347.6537 224.1539 347.8305C 224.0655 347.9189 223.9329 348.1398 223.7561 348.4934C 223.2258 349.3773 221.1045 349.8192 218.9832 347.6979C 216.3315 345.0462 216.9944 340.1407 221.2371 335.898C 225.1261 332.009 229.192 330.8599 232.9043 334.5722C 235.3792 337.0471 235.2466 340.6268 233.8324 343.4553L233.8324 343.4553L234.7605 343.853C 236.705 340.4943 236.926 336.4726 233.5672 333.1138C 229.3246 328.8712 223.9329 328.9596 218.9832 333.9093C 214.5637 338.3287 214.2102 344.5159 218.4528 348.7586C 221.458 351.7638 225.2145 351.5428 226.8055 349.9518C 227.8662 348.8911 227.822 348.0515 226.9381 347.1676C 226.231 346.4604 225.2587 346.4604 224.5516 347.1676z" stroke="none" fill="#000000" fill-rule="evenodd" /><path transform="matrix(1 0 0 -1 0 842)" d="M250.1401 349.9518L249.3446 349.1563L249.3446 349.1563L231.8437 357.6416C 230.9598 358.1719 229.8991 358.0835 229.192 357.3764L229.192 357.3764L228.5291 356.7135L228.5291 356.7135L227.7336 357.509L227.7336 357.509L233.4347 363.2101L233.4347 363.2101L234.2301 362.4146L234.2301 362.4146L233.6998 361.8842C 232.6392 360.8236 233.0811 360.3816 233.4347 360.0281C 233.7882 359.6745 234.1418 359.4094 234.4953 359.2326L234.4953 359.2326L246.9581 353.1338L246.9581 353.1338L247.2232 353.399L247.2232 353.399L241.257 365.7291C 240.9919 366.3478 240.7709 366.7456 240.5941 366.9224C 240.4173 367.0992 239.4009 367.5853 238.3402 366.5246L238.3402 366.5246L238.075 366.2595L238.075 366.2595L237.2795 367.055L237.2795 367.055L242.0525 371.8279L242.0525 371.8279L242.848 371.0324L242.848 371.0324L242.5829 370.7673C 241.5222 369.7066 241.6106 368.5576 242.3177 366.7898z" stroke="none" fill="#000000" fill-rule="evenodd" /><path transform="matrix(1 0 0 -1 0 842)" d="M240.5941 386.0143C 242.1851 387.6053 243.2458 389.373 243.7761 391.3176L243.7761 391.3176L244.0413 391.5827L244.0413 391.5827L265.9174 369.7066C 266.6245 368.9995 267.4642 369.1321 268.1713 369.8392L268.1713 369.8392L271.2207 372.8886L271.2207 372.8886L272.0162 372.0931L272.0162 372.0931L261.6747 361.7516L261.6747 361.7516L260.8792 362.5471L260.8792 362.5471L263.9286 365.5966C 264.8125 366.4804 264.7683 367.1433 264.0612 367.8505L264.0612 367.8505L245.1019 386.8098C 244.3948 387.5168 243.7319 387.5611 242.848 386.6772L242.848 386.6772L239.9312 383.7603L239.9312 383.7603L239.1357 384.5558z" stroke="none" fill="#000000" fill-rule="evenodd" /><path transform="matrix(1 0 0 -1 0 842)" d="M270.0274 395.8254C 269.3203 396.5325 268.5248 396.7093 267.641 395.8254L267.641 395.8254L264.8567 393.0411L264.8567 393.0411L264.0612 393.8366L264.0612 393.8366L265.3871 395.1625C 266.978 396.7534 268.1713 398.3886 268.7016 400.3332L268.7016 400.3332L268.9668 400.5983L268.9668 400.5983L282.8879 386.6772C 283.5951 385.9701 284.4348 386.1027 285.1418 386.8098L285.1418 386.8098L287.9261 389.594L287.9261 389.594L288.7216 388.7985L288.7216 388.7985L278.9105 378.9874L278.9105 378.9874L278.115 379.7829L278.115 379.7829L280.8992 382.5671C 281.7831 383.451 281.7389 384.1139 281.0318 384.821zM261.0118 406.9623C 261.8957 407.8462 263.4425 407.9788 264.3264 407.0949C 265.2103 406.211 265.2103 404.5316 264.3264 403.6477C 263.4425 402.7639 261.7631 402.7639 260.8792 403.6477C 259.9954 404.5316 260.1279 406.0784 261.0118 406.9623z" stroke="none" fill="#000000" fill-rule="evenodd" /><path transform="matrix(1 0 0 -1 0 842)" d="M281.1644 415.4476C 277.4521 419.1599 278.3359 423.7561 281.1644 426.5845C 284.1696 429.5897 286.9096 429.8549 288.3239 428.4407C 289.0309 427.7336 289.3845 426.8497 288.3239 425.789C 287.6167 425.0819 286.8212 424.9052 285.9373 425.789C 285.849 425.8774 285.7606 426.0542 285.6722 426.3194C 285.4954 426.4962 285.3628 426.6287 285.2744 426.7171C 284.5673 427.4242 283.7719 427.601 281.8273 425.6564C 279.706 423.5351 279.4408 420.8835 282.6228 417.7015L282.6228 417.7015L285.2744 415.0498L285.2744 415.0498L290.8429 420.6183L290.8429 420.6183L291.6384 419.8228L291.6384 419.8228L286.0699 414.2543L286.0699 414.2543L298.2675 402.0568C 298.9746 401.3496 299.8143 401.4822 300.5214 402.1893L300.5214 402.1893L303.7034 405.3713L303.7034 405.3713L304.4989 404.5758L304.4989 404.5758L294.8204 394.8973L294.8204 394.8973L294.0249 395.6928L294.0249 395.6928L296.2788 397.9467C 297.1627 398.8306 297.1185 399.4935 296.4114 400.2006L296.4114 400.2006L284.2138 412.3982L284.2138 412.3982L280.1037 408.2881L280.1037 408.2881L279.3082 409.0836L279.3082 409.0836L283.4183 413.1937z" stroke="none" fill="#000000" fill-rule="evenodd" /><path transform="matrix(1 0 0 -1 0 842)" d="M313.7797 430.2968C 310.0674 434.3627 306.3109 434.7604 303.836 432.2856C 301.1843 429.6339 301.5821 425.5239 305.2944 421.8116zM306.0899 421.0161C 310.8629 416.2431 314.752 416.4199 317.7572 419.425C 320.0553 421.7231 320.1878 424.861 318.9504 427.5126L318.9504 427.5126L319.8785 427.9103C 321.2927 425.4355 321.7346 421.2812 318.5527 418.0992C 314.4868 414.0334 308.9183 413.945 303.9686 418.8947C 299.5492 423.3141 299.1956 429.5013 302.9079 433.2137C 306.2667 436.5724 311.1722 437.4121 316.8291 431.7552z" stroke="none" fill="#000000" fill-rule="evenodd" /><path transform="matrix(1 0 0 -1 0 842)" d="M330.8828 430.1642C 329.8222 429.1036 328.1428 428.9268 326.9054 430.1642C 325.6679 431.4017 325.8447 433.0811 326.9054 434.1417C 327.966 435.2024 329.8222 435.2024 330.8828 434.1417C 332.1203 432.9043 331.9435 431.2249 330.8828 430.1642z" stroke="none" fill="#000000" fill-rule="evenodd" /><path transform="matrix(1 0 0 -1 0 842)" d="M344.2737 444.3506L343.4782 445.1461L343.4782 445.1461L344.1411 445.809C 345.025 446.6929 344.9808 447.3558 344.2737 448.0629L344.2737 448.0629L332.8716 459.465C 332.3412 459.9953 331.9435 460.1279 331.4132 459.5976L331.4132 459.5976L330.3525 458.5369L330.3525 458.5369L329.557 459.3324L329.557 459.3324L330.4851 460.2605C 331.369 461.1444 332.0319 462.0724 332.2087 463.3099L332.2087 463.3099L332.4738 463.5751L332.4738 463.5751L335.5232 460.5257C 335.3464 463.8844 336.0094 466.3151 337.7771 468.0829C 340.7823 471.0881 343.7433 470.8671 346.9254 467.6851L346.9254 467.6851L355.4106 459.1998C 356.1177 458.4927 356.9574 458.6253 357.6645 459.3324L357.6645 459.3324L358.3275 459.9953L358.3275 459.9953L359.1229 459.1998L359.1229 459.1998L353.5544 453.6314L353.5544 453.6314L352.759 454.4269L352.759 454.4269L353.4219 455.0898C 354.3058 455.9737 354.2616 456.6366 353.5544 457.3437L353.5544 457.3437L344.6714 466.2267C 342.5501 468.348 340.473 468.6574 338.7052 466.8896C 337.1142 465.2986 336.4513 462.426 336.9816 459.0673L336.9816 459.0673L346.1298 449.9191C 346.8369 449.2119 347.6766 449.3445 348.3837 450.0516L348.3837 450.0516L349.0466 450.7145L349.0466 450.7145L349.8422 449.9191z" stroke="none" fill="#000000" fill-rule="evenodd" /><path transform="matrix(1 0 0 -1 0 842)" d="M364.6914 481.2086C 360.9791 485.2744 357.2226 485.6721 354.7477 483.1973C 352.0961 480.5456 352.4938 476.4356 356.2061 472.7233zM357.0016 471.9278C 361.7746 467.1548 365.6637 467.3315 368.6689 470.3368C 370.967 472.6349 371.0995 475.7726 369.8621 478.4243L369.8621 478.4243L370.7902 478.8221C 372.2044 476.3472 372.6464 472.1929 369.4644 469.011C 365.3985 464.9451 359.83 464.8567 354.8803 469.8065C 350.4609 474.2259 350.1073 480.4131 353.8196 484.1254C 357.1784 487.4841 362.0839 488.3238 367.7408 482.6669z" stroke="none" fill="#000000" fill-rule="evenodd" /><path transform="matrix(1 0 0 -1 0 842)" d="M380.8665 489.4286C 383.3413 486.9538 384.9323 487.1306 386.7001 488.8983C 388.4679 490.6661 388.3353 492.92 386.5675 495.3949L386.5675 495.3949L387.4956 495.7926C 389.6169 492.9642 389.8379 489.6497 387.363 487.1747C 384.7114 484.5231 381.8387 484.7441 378.48 488.1028L378.48 488.1028L369.1992 497.3836L369.1992 497.3836L365.2217 493.4061L365.2217 493.4061L364.4262 494.2016L364.4262 494.2016L365.4869 495.2623C 367.6082 497.3836 367.6966 500.0353 365.2217 503.2173L365.2217 503.2173L364.2936 504.4105L364.2936 504.4105L365.0891 505.206L365.0891 505.206L370.2599 500.0353L370.2599 500.0353L375.5632 505.3386L375.5632 505.3386L376.3586 504.5431L376.3586 504.5431L371.0554 499.2397z" stroke="none" fill="#000000" fill-rule="evenodd" /></g></g></g></g></g></svg>